<svg width="280" height="280" viewBox="0 0 280 280" fill="none" xmlns="http://www.w3.org/2000/svg">
<g clip-path="url(#clip0_3_3436)">
<rect width="280" height="280" fill="white"/>
<path d="M102.4 252C102.4 255.2 103.6 258.4 106 261.2C108.4 264 112 265.6 116 265.2C120.8 264.8 125.6 261.6 128 257.6C131.2 252 133.2 245.6 135.6 238.4C137.2 232.4 139.2 225.6 142.4 220C148.4 209.2 158 202 169.2 199.6C179.6 197.6 190 200 198.8 206.8C211.2 216 212.4 231.6 208.4 239.6C207.2 242.4 204.4 245.2 199.6 244C198.267 243.733 197.467 242.933 197.2 241.6C196.8 239.6 197.6 237.6 198.4 236.8C199.2 236 199.6 236.4 200 236.4C201.2 236.8 202.8 236.4 203.2 235.2C203.6 234 203.2 232.8 202 232.4C199.6 231.2 197.6 231.6 195.6 233.2C192.8 235.2 191.6 239.2 192.4 242.4C193.2 245.6 195.2 247.6 198.4 248.4C204.4 250 210 247.6 212.8 241.6C218 231.2 215.2 213.6 202 203.2C192 195.6 180 192.8 168 195.2C155.6 197.6 144.8 206 138 218C134.8 224 132.8 230.8 130.8 237.2C128.8 244 126.8 250.4 124 255.2C122 258 118.8 260.4 115.6 260.4C113.2 260.666 111.067 259.866 109.2 258C106 254.4 106.4 248.8 109.6 245.6C112 243.2 114.4 243.2 116 244.4C117.6 245.6 117.6 248 116 250.4C115.2 251.2 115.2 252.8 116.4 253.6C117.6 254.4 118.8 254 119.6 252.8C123.2 248 122 243.2 119.2 240.8C116 238.4 110.4 238 106 242.4C103.6 244.8 102.4 248.4 102.4 252Z" fill="#EADBD9"/>
<path d="M157.6 258.8C157.6 261.6 158.4 264.8 160.4 268C165.6 275.2 177.2 282 192 279.6C208.8 276.8 218 263.6 220.8 253.2C223.2 243.2 220.8 233.6 214.4 228.8C213.2 228 212 228 211.2 228.8C210.4 230 210.4 231.6 211.6 232.4C216.4 236 218.4 243.6 216 252C213.6 261.2 205.6 272.8 191.2 275.2C178.4 277.2 168.8 271.6 164.4 265.2C161.6 261.2 162 256 164 253.6C166 250.4 170 249.6 172.8 250.4C174 250.8 176.8 252.4 176.8 256C176.8 258.8 175.6 260.4 173.6 260.8C172.4 260.8 170.8 260 170.8 258.8C170.4 257.2 169.2 256.4 168 256.8C166.8 256.8 166 258 166 259.2C166.4 262.8 170 265.6 173.6 265.2C177.6 265.2 181.2 262 181.6 256C181.6 251.2 178.8 247.6 174 246C168.8 244.4 162.8 246.4 160 250.8C158.4 252.8 157.6 255.6 157.6 258.8Z" fill="#EADBD9"/>
<path d="M152.8 244.4C152.8 250.4 154.8 256 159.2 258C160.4 258.4 162 258 162.4 256.8C163.2 256 162.4 254.4 161.2 254C157.2 251.6 156.4 241.6 160 233.6C163.2 226.8 170.4 223.2 176.4 222.8C182 222.4 186.4 224.4 188.8 228.4C191.6 232.8 190.4 236.8 188.4 239.2C186 242 182 242.4 178.8 240.8C176.8 240 176.4 237.6 176.8 235.6C177.334 234 178.533 233.2 180.4 233.2C181.6 233.2 182.8 232.4 182.8 231.2C183.2 229.6 182 228.8 180.8 228.4C176.4 228.4 173.2 230.4 172 234.4C170.8 238.4 172.8 243.2 176.4 244.8C182 247.6 188 246.4 192 242.4C196 238 196.4 231.6 192.8 226C189.6 220.4 183.2 217.6 176 218C167.2 218.8 159.2 224 155.6 232C154 235.6 152.8 240.4 152.8 244.4Z" fill="#EADBD9"/>
<path d="M131.6 270.8C131.6 272.133 131.867 273.6 132.4 275.2C134.4 278.8 138.8 280.8 143.2 280C148.4 279.2 150 276 150 273.2C150 269.6 147.6 266.8 144.4 266.4C143.2 266 142 266.8 142 268C141.6 269.6 142.4 270.8 143.6 270.8C144.8 270.8 145.2 272 145.2 272.8C145.2 274.4 144.4 275.2 142.4 275.6C140 276 137.6 274.8 136.8 272.8C135.6 270.8 136 268.8 138 266.8C140 264.4 143.2 263.6 145.2 263.6C150.8 263.2 157.6 265.6 162 269.6C162.8 270.8 164.4 270.4 165.2 269.6C166.4 268.8 166 267.2 165.2 266.4C159.6 261.6 152 258.8 145.2 259.2C140.4 259.2 136.8 260.8 134.4 263.6C132.4 265.6 131.6 268.4 131.6 270.8Z" fill="#EADBD9"/>
<path d="M74.0003 268C74.0003 271.2 75.6003 274.4 78.0003 276.4C84.8003 281.2 98.0002 278.4 109.2 269.2C112.8 266.4 116.8 265.2 121.2 266C126.4 266.8 130.4 270 131.6 272.8C132.4 274 134 274.4 135.2 274C136 273.2 136.4 272 136 270.8C133.6 266.8 128.8 262.4 122 261.2C118 260.4 112 260.8 106 265.6C96.0003 274 85.2002 275.6 80.8002 272.4C78.8002 270.8 78.4002 268.4 79.2002 266.4C79.6002 264.4 81.2003 262.4 83.6002 262C86.0002 261.6 87.6002 262.8 87.6002 264C88.0002 264 88.0002 264.8 87.2002 265.2C86.0002 266 85.6002 267.2 86.4002 268.4C86.8002 269.6 88.4003 270 89.6003 269.6C92.0003 268 93.2002 265.2 92.4002 262.4C91.2002 259.6 88.0002 256.8 83.2002 257.6C79.2002 258 75.6002 260.8 74.4002 265.2C74.1335 266.267 74.0003 267.2 74.0003 268Z" fill="#EADBD9"/>
<path d="M210.8 266.8C210.8 271.2 213.6 274.4 216.4 276.4C220.8 278.8 226 278.4 229.2 275.2C233.2 271.2 232.8 266.8 231.2 263.6C228.8 260 224.8 259.2 221.6 260.4C218.8 261.6 217.2 264.8 218.4 268C218.8 269.2 220.4 270 221.6 269.6C222.8 269.2 223.2 267.6 222.8 266.4C222.8 266.4 222.4 265.2 223.6 264.8C224.4 264.4 226 264.4 226.8 266C227.2 266.8 228.4 269.2 225.6 272C224 273.6 221.2 274 218.8 272.4C215.6 270.4 214.8 266.8 216.4 262.8C216.8 261.6 216.4 260 215.2 259.6C214 259.2 212.4 260 212 261.2C211.2 263.066 210.8 264.933 210.8 266.8Z" fill="#EADBD9"/>
<path d="M212.8 232.8C212.8 232.8 212.8 232.933 212.8 233.2C213.2 234.4 214.4 235.2 215.6 234.8C219.6 234.266 222.667 235.066 224.8 237.2C228 240 229.2 246 228.4 252C226.8 262.8 232.4 276 243.6 278.4C249.6 279.6 255.2 278 258.4 274C261.2 270.4 262 266 260 262C257.6 256.8 252.4 255.6 248 256.8C244 258 241.6 261.2 242.4 264.8C242.8 266 244 266.8 245.2 266.4C246.4 266 247.2 264.8 247.2 263.6C246.8 262.4 248.4 261.6 249.2 261.2C251.2 260.8 254.4 260.8 255.6 263.6C256.8 266.4 256.4 268.8 254.8 271.2C252.4 273.6 248.8 274.4 244.8 273.6C236 272 231.6 261.2 233.2 252.4C234 246.8 233.2 238.8 228 234C225.6 231.6 221.6 229.2 214.8 230.4C213.6 230.8 212.8 231.6 212.8 232.8Z" fill="#EADBD9"/>
<path d="M236.8 237.6C236.534 238.933 236.4 240.266 236.4 241.6C236.134 242.933 236.134 244.4 236.4 246L236.4 248C236.4 248.8 236.534 249.466 236.8 250C236.8 250.8 236.934 251.6 237.2 252.4C237.2 252.666 237.334 253.066 237.6 253.6C237.6 253.866 237.734 254.133 238 254.4C238.534 256 239.467 257.466 240.8 258.8C242 260 244 260.8 245.6 261.2C247.6 261.6 249.2 261.6 250.4 261.6C251.6 261.6 253.6 261.6 254.8 261.6C256.134 261.6 257.467 261.6 258.8 261.6C260.134 261.333 261.334 261.333 262.4 261.6C265.067 261.866 267.334 262.533 269.2 263.6C270 264.133 270.8 264.8 271.6 265.6C272.4 266.666 273.067 267.733 273.6 268.8C274.8 271.2 275.6 273.6 276.4 276.4C277.2 273.466 277.334 270.666 276.8 268C276.534 266.4 276 264.933 275.2 263.6C274.4 262 273.334 260.666 272 259.6C269.6 257.6 266.4 256.4 263.2 255.6C261.867 255.6 260.4 255.466 258.8 255.2C257.2 255.2 255.734 255.333 254.4 255.6C253.2 255.6 252 255.6 250.4 255.6C249.067 255.6 247.867 255.6 246.8 255.6C246 255.333 245.2 255.066 244.4 254.8C243.6 254.266 242.934 253.466 242.4 252.4C242.134 252.133 242 251.866 242 251.6C241.734 251.333 241.467 251.066 241.2 250.8C240.934 250.266 240.8 249.733 240.8 249.2C240.534 248.4 240.267 247.733 240 247.2L239.2 245.2C238.934 244.666 238.8 244.133 238.8 243.6L238 241.6C237.734 240.266 237.334 238.933 236.8 237.6Z" fill="#EADBD9"/>
<path d="M160 260.4C153.6 249.6 141.6 248.4 141.6 248.4C141.6 248.4 149.2 244.4 153.6 246L155.2 246C155.2 246 157.2 240.8 161.2 238.4C164.8 236 166 236 166 236C166 236 161.2 241.2 160 246.8C159.2 252.8 160 260.4 160 260.4Z" fill="#EADBD9"/>
<path d="M214.4 235.2C216.8 242.4 214.4 247.6 212 250C212 250 217.2 250 219.6 243.6C219.6 243.6 223.2 248.4 225.2 250C225.2 250 223.2 246 222 241.2C221.2 236.4 218 232 216.4 230.8C214.8 230 212.8 228 214.4 235.2Z" fill="#EADBD9"/>
<path d="M166.4 272.8C158.8 266.4 150.8 270.8 150.8 270.8C150.8 270.8 151.6 266.8 156.8 265.2L161.2 266.8L166.4 272.8Z" fill="#EADBD9"/>
<path d="M142 215.2C157.6 204 169.2 211.6 169.2 211.6C169.2 211.6 158.4 193.6 142 215.2Z" fill="#EADBD9"/>
<path d="M133.6 272.8C127.2 266.8 118.8 270 118.8 270C118.8 270 120.4 265.2 125.2 265.6C130 266 133.2 270.4 133.6 272.8Z" fill="#EADBD9"/>
<path d="M215.2 272C215.6 277.6 211.6 279.6 211.6 279.6C211.6 279.6 212.4 272.4 211.2 268.8C210 264.8 214 266 215.2 272Z" fill="#EADBD9"/>
<path d="M214.4 228.8C221.2 230 229.2 230 229.2 230C229.2 230 228 232.8 223.2 233.6C218.8 234 214.4 228.8 214.4 228.8Z" fill="#EADBD9"/>
<path d="M192.4 178.4C192.4 187.2 195.6 196 201.6 203.2C212.4 216.4 230.4 219.2 240.8 214C247.2 211.2 249.6 206 248.4 200C247.2 196.8 245.2 194.8 242 194C238.4 193.2 234.4 194.4 232.4 197.2C230.8 198.8 230.4 201.2 231.6 203.2C232 204.4 233.2 205.2 234.4 204.4C235.6 204 236.4 202.8 235.6 201.6C235.6 201.2 235.6 200.8 236 200C236.8 198.8 239.2 198 240.8 198.4C242.4 198.933 243.334 199.866 243.6 201.2C244.8 206 241.6 208.4 238.8 210C230.8 213.6 214.8 212.4 205.2 200.4C198.4 192 196 181.6 198 171.2C200.4 160.4 208 150.8 219.2 145.2C224.8 142 231.6 140.4 238 138.4C245.2 136.4 252 134.4 257.6 131.2C261.6 128.4 264.8 124 265.2 119.6C265.6 115.6 264 112 261.2 109.6C255.6 104.8 247.2 104.8 241.6 109.6C237.6 114 237.6 119.2 240.4 122.4C242.8 125.2 247.6 126.4 252.8 123.2C253.6 122.4 254 120.8 253.2 119.6C252.4 118.8 251.2 118.4 250 119.2C247.6 120.8 245.2 120.8 244 119.2C242.8 118 242.8 115.2 245.2 113.2C248.4 110 254.4 109.6 258 112.8C259.867 114.666 260.667 116.666 260.4 118.8C260 122 258 125.2 254.8 127.2C250 130 243.6 132 236.8 134C230 136 222.8 138 216.8 141.2C204.8 147.6 196 158 193.6 170.4C192.8 173.066 192.4 175.733 192.4 178.4Z" fill="#EADBD9"/>
<path d="M227.2 214C227.2 214.533 227.334 215.067 227.6 215.6C232.8 222 242.8 224.4 252.8 221.6C263.6 218.8 277.2 210 280 193.6C282.4 179.2 275.6 168 268 162.8C262 158.8 254.4 159.6 250.4 162.4C246 165.2 244 171.2 245.6 176.4C247.2 180.8 251.2 183.6 256 183.2C262 183.2 265.2 179.6 265.2 176C265.6 172 262.8 168.8 259.2 168.4C258 168 256.8 169.2 256.4 170.4C256.4 171.6 257.2 172.8 258.4 172.8C260 173.2 260.4 174.4 260.4 175.6C260.4 177.6 258.8 178.8 255.6 178.8C252 178.8 250.4 176 250 174.8C249.2 172 250 168 253.2 166C256 164.4 261.2 164 265.2 166.8C271.6 170.8 277.2 180.4 275.2 192.8C272.8 206.8 261.2 214.8 251.6 217.2C243.2 219.2 235.6 217.6 231.6 212.8C230.8 211.6 229.2 211.6 228 212.4C227.467 212.933 227.2 213.467 227.2 214Z" fill="#EADBD9"/>
<path d="M216.8 179.6C216.8 186 220 191.6 224.8 194.4C230.8 198 237.2 197.6 242 193.6C246 189.6 247.2 183.6 244.4 178.4C242.8 174.8 238 173.2 233.6 174.4C229.6 175.2 227.6 178.4 227.6 182.8C228 184 228.8 184.8 230.4 184.8C231.6 184.8 232.4 183.6 232.4 182.4C232.4 180.533 233.2 179.333 234.8 178.8C236.8 178.4 239.2 178.8 240.4 180.4C242 184 241.2 187.6 238.8 190C236.4 192 232 193.2 227.2 190.4C223.2 188 221.2 183.6 221.6 178.4C222 172.8 225.6 165.6 232.8 162.4C241.2 158.8 251.6 159.6 253.6 163.6C254.4 164.8 255.6 165.2 256.8 164.8C258 164 258.4 162.8 258 161.6C254 154.4 240.8 154 231.2 158C223.2 161.6 217.6 169.2 216.8 178C216.8 178.533 216.8 179.066 216.8 179.6Z" fill="#EADBD9"/>
<path d="M258.8 148.8C258.8 155.2 261.6 162.4 266.4 167.6C267.2 168.4 268.8 168.4 269.6 167.6C270.8 166.8 270.8 165.2 270 164.4C265.6 160 263.2 153.6 263.6 148C263.6 146 264.4 142.8 266.8 140.8C268.8 139.2 271.2 138.4 273.2 139.6C274.8 140.4 276 142.8 275.6 145.2C275.6 147.2 274.4 148 273.2 148C272.4 148 271.2 147.6 270.8 146.4C270.8 145.2 269.6 144.4 268.4 144.8C266.8 144.8 266 146 266.4 147.2C266.8 150.4 269.6 152.8 273.2 152.8C276 152.8 279.6 150.8 280.4 146C280.8 141.6 278.8 137.2 275.2 135.6C271.6 133.6 267.2 134.4 263.6 137.6C260.8 140 259.2 143.2 258.8 147.6C258.8 148.133 258.8 148.533 258.8 148.8Z" fill="#EADBD9"/>
<path d="M257.2 88.3998C257.2 92.7998 259.6 95.1999 262.4 95.9999C265.2 97.1999 268.4 95.9999 269.6 93.5999C270 92.3999 269.6 90.7998 268.4 90.3998C267.6 89.5998 266 89.9999 265.2 91.1999C264.8 91.9999 264 91.9999 263.6 91.5999C262.8 91.5999 261.6 90.3999 262 87.5999C262.4 85.1999 264.4 83.5999 266.4 83.1999C268.4 82.7999 271.2 82.7999 272.8 85.1999C276 89.1999 274.4 99.5999 265.6 109.6C260.8 115.6 260.4 121.2 261.2 125.2C262.4 131.6 266.8 136.8 270.8 138.8C272 139.6 273.2 139.2 274 138C274.8 136.8 274.4 135.6 273.2 134.8C270.4 133.2 266.8 129.2 266 124.4C265.2 120.4 266.4 116.4 269.2 112.8C278.8 102 281.6 89.1998 276.4 82.3998C274 78.7998 269.6 77.5999 265.2 78.7999C260.8 79.9999 257.6 83.1999 257.2 87.1999C257.2 87.7332 257.2 88.1332 257.2 88.3998Z" fill="#EADBD9"/>
<path d="M259.6 215.6C259.6 215.866 259.6 216.133 259.6 216.4C260 217.6 261.6 218 262.8 217.6C266.8 216 270.8 216.8 272.4 220C274 222.4 274 225.2 272.4 226.8C269.6 229.2 266.8 228.4 266 228C264.4 226.8 264.4 225.6 264.8 224.8C265.2 223.6 266.4 224 266.4 224C268 224.4 269.2 223.6 269.6 222.4C270 221.2 269.2 220 268 219.6C264.8 218.4 261.6 219.6 260.4 222.8C259.2 225.6 259.6 229.6 263.6 232C266.8 233.6 271.6 234 275.6 230C278.8 226.8 279.2 221.6 276.4 217.6C274 213.6 268.8 210.4 260.8 213.2C260 213.6 259.6 214.4 259.6 215.6Z" fill="#EADBD9"/>
<path d="M229.2 219.2C229.2 224 231.2 227.2 233.2 228.8C238 234 246.4 234.8 252.4 234C261.2 232.4 272 236.4 274 245.2C274.8 249.2 273.6 252.8 271.2 254.8C269.2 256.8 266.4 256.8 263.6 256C260.4 254.4 260.4 251.2 261.2 249.6C261.6 248.8 262.4 247.2 263.6 247.6C264.8 247.6 266.4 246.8 266.4 245.6C266.8 244.4 266 243.2 264.8 242.8C261.2 242.4 258 244.4 256.8 248.4C255.2 252.4 256.4 258 262 260C266 262 270.8 261.2 274 258.4C278 255.2 279.6 250 278.4 244.4C276 232.8 262.4 227.6 251.6 229.2C245.6 230 239.6 228.8 236.4 225.6C234.267 223.466 233.6 220.533 234.4 216.8C234.4 215.6 233.6 214.4 232.4 214C231.2 214 230 214.8 229.6 216C229.334 217.333 229.2 218.4 229.2 219.2Z" fill="#EADBD9"/>
<path d="M236.8 237.6C238.134 237.866 239.467 238.266 240.8 238.8L242.8 239.2C243.6 239.466 244.267 239.733 244.8 240L246.8 240.4C247.334 240.666 248 240.933 248.8 241.2C249.334 241.466 249.867 241.733 250.4 242C250.667 242 250.934 242.133 251.2 242.4C251.467 242.4 251.734 242.533 252 242.8C253.067 243.333 253.867 244 254.4 244.8C254.933 245.6 255.2 246.4 255.2 247.2C255.467 248.266 255.6 249.466 255.6 250.8C255.2 252.4 255.2 253.2 255.2 254.8C255.2 256.133 255.2 257.466 255.2 258.8C255.2 260.4 255.334 262 255.6 263.6C256 266.4 257.2 269.6 259.6 272C260.667 273.333 262 274.266 263.6 274.8C264.934 275.6 266.4 276.133 268 276.4C270.934 276.933 273.733 276.933 276.4 276.4C274 275.6 271.2 274.8 268.8 273.6C267.734 273.066 266.667 272.4 265.6 271.6C264.8 270.8 264.134 270 263.6 269.2C262.4 267.2 261.6 265.2 261.6 262.8C261.334 261.466 261.2 260.133 261.2 258.8C261.467 257.733 261.6 256.533 261.6 255.2C261.6 253.6 261.6 252 261.6 250.8C261.6 249.6 261.6 248 261.2 246C260.8 244.4 260 242.8 258.4 241.2C257.2 240 255.6 239.2 254.4 238.4C253.867 238.4 253.467 238.266 253.2 238C252.667 238 252.267 237.866 252 237.6C251.2 237.6 250.534 237.466 250 237.2C249.2 237.2 248.4 237.066 247.6 236.8L245.6 236.8C244 236.8 242.534 236.8 241.2 236.8C239.6 237.066 238.134 237.333 236.8 237.6Z" fill="#EADBD9"/>
<path d="M260.4 162.4C249.2 156 248 144.4 248 144.4C248 144.4 244 151.6 245.6 156L245.6 158C245.6 158 240.4 159.6 238 163.6C235.6 167.2 235.6 168.4 235.6 168.4C235.6 168.4 240.4 163.6 246.4 162.4C252.4 161.6 260.4 162.4 260.4 162.4Z" fill="#EADBD9"/>
<path d="M234.4 215.6C241.6 217.6 247.2 215.6 249.6 213.2C249.6 213.2 250 218 243.2 220.8C243.2 220.8 248.4 224 249.6 226.4C249.6 226.4 245.2 224 240.8 223.2C236 222 231.2 219.2 230 217.6C229.2 216 227.2 214 234.4 215.6Z" fill="#EADBD9"/>
<path d="M273.2 168.4C266.4 161.2 270.8 153.2 270.8 153.2C270.8 153.2 267.2 154 265.2 159.6L266.8 163.2L273.2 168.4Z" fill="#EADBD9"/>
<path d="M216.4 144.8C203.2 158.4 208.8 170.8 208.8 170.8C208.8 170.8 192 158 216.4 144.8Z" fill="#EADBD9"/>
<path d="M272.8 136.4C266.8 130.4 270 122 270 122C270 122 265.2 123.6 265.6 128.4C266 133.2 270.8 136 272.8 136.4Z" fill="#EADBD9"/>
<path d="M272.4 216.4C278 216.8 280 212.8 280 212.8C280 212.8 272.8 213.6 268.8 212.4C264.8 211.2 266 215.2 272.4 216.4Z" fill="#EADBD9"/>
<path d="M228 215.6C229.2 222 229.2 230 229.2 230C229.2 230 232 228.8 232.8 224.4C233.2 220 228 215.6 228 215.6Z" fill="#EADBD9"/>
<path d="M168.8 188.8C169.334 189.867 170.267 190.533 171.6 190.8C172.667 191.067 173.867 191.067 175.2 190.8C177.6 190 179.6 188 180.4 185.6C180.8 184.4 180.4 182.8 180.4 181.6C179.867 180.267 179.334 179.067 178.8 178C177.2 176 174.8 174.4 172 173.6C169.6 173.2 166.4 173.6 164 174.8C161.6 176 159.6 178 158.4 180.4C157.2 182.8 156.8 185.2 156.8 188C156.8 190.4 157.2 192.8 158 195.2C158.8 197.333 160 199.467 161.6 201.6C163.467 203.467 165.334 205.067 167.2 206.4C171.2 208.8 175.6 210.8 180 212C184.8 212.8 189.2 213.2 194 212.8C196.4 212.533 198.667 212 200.8 211.2C201.867 210.933 202.8 210.533 203.6 210C204.667 209.2 205.6 208.4 206.4 207.6C204.533 208.667 202.533 209.467 200.4 210C198.267 210.267 196.134 210.267 194 210C189.6 210 185.2 209.2 181.2 207.6C177.2 206.4 173.6 204.4 170.4 202C168.8 200.8 167.2 199.6 166 198C164.934 196.667 164 195.067 163.2 193.2C162 189.6 161.6 185.6 163.2 182.4C163.467 182.133 163.6 181.867 163.6 181.6C163.867 181.067 164.133 180.667 164.4 180.4C164.667 180.133 164.934 179.867 165.2 179.6C165.467 179.333 165.734 179.2 166 179.2L166.4 178.8C168 178 169.6 177.6 171.2 178C172.8 178 174.4 178.8 175.6 180.4C176.8 181.6 178 183.2 177.6 185.2C177.6 186.8 176.4 188.4 174.8 189.2C172.8 190.4 170.4 190.4 168.8 188.8Z" fill="#EADBD9"/>
<path d="M187.2 170.8C188.4 172.8 188.4 174.8 187.6 176.8C186.8 178.4 184.8 179.6 183.2 179.6C181.6 179.6 179.6 178.8 178.4 177.6C176.8 176.4 176 175.2 176 173.2C175.6 171.6 176 170 176.8 168.8L177.2 168C177.467 168 177.6 167.867 177.6 167.6C177.867 167.333 178.133 167.067 178.4 166.8C178.933 166.533 179.334 166.267 179.6 166C179.867 165.733 180.267 165.467 180.8 165.2C184 164 188 164.4 191.6 165.6C193.467 166.133 195.067 167.067 196.4 168.4C198 169.2 199.6 170.8 200.8 172.4C203.2 175.6 205.2 179.2 206.4 183.2C207.6 187.2 208.8 191.2 208.8 195.6C209.067 197.733 208.933 199.733 208.4 201.6C208.133 203.733 207.467 205.733 206.4 207.6C207.2 206.8 207.867 206 208.4 205.2C209.2 204.133 209.734 203.067 210 202C210.8 199.867 211.334 197.733 211.6 195.6C212 191.2 211.6 186.4 210.4 182C209.6 177.6 207.6 173.2 204.8 169.6C203.467 167.467 201.867 165.6 200 164C197.867 162.4 195.734 161.2 193.6 160.4C191.2 159.6 188.667 159.2 186 159.2C183.6 159.2 180.8 159.6 178.4 160.8C176 162 174 164 172.8 166.4C171.2 168.8 170.8 171.6 171.6 174.4C172.4 176.8 174 179.2 176 180.4C177.067 181.2 178.267 181.733 179.6 182C180.8 182.4 182.4 182.4 183.6 182.4C186.4 181.6 188.4 179.6 189.2 177.2C189.467 176.133 189.467 174.933 189.2 173.6C188.667 172.533 188 171.6 187.2 170.8Z" fill="#EADBD9"/>
<path d="M62.8002 269.6C62.4002 274.4 54.0003 276.4 52.0003 269.2C50.0003 262.4 56.4002 258.8 61.2002 259.2C66.0002 259.6 71.6002 263.6 70.4002 272.4C69.2002 281.6 64.0002 281.6 52.8002 281.6C41.6002 281.6 -180 281.6 -180 281.6L-180 276C-180 276 53.6003 276 60.0003 276C66.0003 276 67.6002 269.6 65.2002 266C63.2002 262.8 58.4002 263.2 57.2002 265.2C55.6002 266.8 56.0002 268.8 57.2002 269.6C58.4002 270.4 56.0002 268.4 58.4002 267.2C60.8002 266 62.8002 268 62.8002 268L62.8002 269.6Z" fill="#EADBD9"/>
<path d="M268.4 67.5995C273.2 67.5995 275.2 59.1995 268.4 57.1995C261.2 55.1995 257.6 61.1995 258 65.9995C258.4 70.7995 262.8 76.3995 271.2 75.5995C280.4 74.3995 280.4 68.7995 280.4 57.5995C280.4 46.7995 280.4 -1004.8 280.4 -1004.8L274.8 -1004.8C274.8 -1004.8 274.8 58.7994 274.8 64.7994C274.8 70.7994 268.4 72.7994 264.8 70.3994C261.6 67.9994 262 63.5995 264 61.9995C266 60.3995 268 61.1995 268.4 61.9995C269.2 63.1995 267.2 61.1995 266 63.5995C264.8 65.9995 266.8 67.9995 266.8 67.9995L268.4 67.5995Z" fill="#EADBD9"/>
</g>
<defs>
<clipPath id="clip0_3_3436">
<rect width="280" height="280" fill="white"/>
</clipPath>
</defs>
</svg>
