<svg width="280" height="280" viewBox="0 0 280 280" fill="none" xmlns="http://www.w3.org/2000/svg">
<g clip-path="url(#clip0_1_2008)">
<rect width="280" height="280" fill="white"/>
<path d="M12.0002 68.7998C7.20019 68.7998 5.20019 60.3999 12.0002 58.3999C19.2002 56.3999 22.8002 62.3999 22.4002 67.1999C22.0002 71.9999 17.6002 77.5998 9.2002 76.7998C0.000201091 75.5998 0.000187714 69.9999 0.000185826 59.1999C0.000183868 47.9999 0 -1003.6 0 -1003.6L5.60004 -1003.6C5.60004 -1003.6 5.60022 60 5.60022 66C5.60022 72 12.0002 73.9998 15.6002 71.5998C18.8002 69.1998 18.4002 64.7999 16.4002 63.1999C14.4002 61.9999 12.4002 62.3998 12.0002 63.5998C11.2002 64.3998 13.2002 62.3998 14.4002 64.7998C15.6002 67.1998 13.6002 69.1999 13.6002 69.1999L12.0002 68.7998Z" fill="#EADBD9"/>
<path d="M180.4 252C180.4 255.2 179.2 258.4 176.8 261.2C174 264 170.4 265.6 166.8 265.2C162 264.8 157.2 261.6 154.8 257.6C151.2 252 149.2 245.6 147.2 238.4C145.2 232.4 143.2 225.6 140.4 220C134.4 209.2 124.8 202 113.6 199.6C103.2 197.6 92.4003 200 83.6003 206.8C71.6003 216 70.4004 231.6 74.0004 239.6C75.6004 242.4 78.4003 245.2 82.8003 244C84.4003 243.733 85.3337 242.933 85.6003 241.6C86.0003 239.6 85.2004 237.6 84.0004 236.8C83.6004 236 83.2003 236.4 82.8003 236.4C81.6003 236.8 80.0003 236.4 79.6003 235.2C79.2003 234 79.6003 232.8 80.8003 232.4C82.8003 231.2 85.2003 231.6 87.2003 233.2C89.6003 235.2 91.2003 239.2 90.4003 242.4C89.6003 245.6 87.2004 247.6 84.0004 248.4C78.4004 250 72.8004 247.6 70.0004 241.6C64.8004 231.2 67.2003 213.6 80.8003 203.2C90.8003 195.6 102.8 192.8 114.8 195.2C127.2 197.6 138 206 144.4 218C147.6 224 150 230.8 152 237.2C154 244 155.6 250.4 158.8 255.2C160.4 258 164 260.4 167.2 260.4C169.6 260.666 171.6 259.867 173.2 258C176.4 254.4 176.4 248.8 173.2 245.6C170.8 243.2 168 243.2 166.8 244.4C165.2 245.6 165.2 248 166.8 250.4C167.6 251.2 167.2 252.8 166.4 253.6C165.2 254.4 163.6 254 162.8 252.8C159.2 248 160.8 243.2 163.6 240.8C166.8 238.4 172.4 238 176.4 242.4C179.2 244.8 180.4 248.4 180.4 252Z" fill="#EADBD9"/>
<path d="M124.8 258.8C124.8 261.6 124 264.8 122 268C117.2 275.2 105.6 282 90.8003 279.6C74.0003 276.8 64.8004 263.6 62.0004 253.2C59.2004 243.2 61.6003 233.6 68.4003 228.8C69.2003 228 70.8004 228 71.6004 228.8C72.4004 230 72.4004 231.6 71.2004 232.4C66.4004 236 64.4003 243.6 66.8003 252C69.2003 261.2 77.2004 272.8 91.6004 275.2C104 277.2 114 271.6 118.4 265.2C121.2 261.2 120.8 256 118.8 253.6C116.8 250.4 112.8 249.6 110 250.4C108.8 250.8 106 252.4 106 256C106 258.8 107.2 260.4 109.2 260.8C110.4 260.8 111.6 260 112 258.8C112 257.2 113.2 256.4 114.8 256.8C116 256.8 116.8 258 116.8 259.2C116 262.8 112.8 265.6 108.8 265.2C105.2 265.2 101.2 262 101.2 256C101.2 251.2 104 247.6 108.4 246C114 244.4 119.6 246.4 122.8 250.8C124 252.8 124.8 255.6 124.8 258.8Z" fill="#EADBD9"/>
<path d="M129.6 244.4C129.6 250.4 127.6 256 123.6 258C122.4 258.4 120.8 258 120.4 256.8C119.6 256 120 254.4 121.2 254C125.6 251.6 126.4 241.6 122.8 233.6C119.6 226.8 112.4 223.2 106.4 222.8C100.8 222.4 96.4002 224.4 94.0002 228.4C90.8002 232.8 92.4001 236.8 94.4001 239.2C96.8001 242 100.8 242.4 104 240.8C106 240 106.4 237.6 106 235.6C105.467 234 104.267 233.2 102.4 233.2C100.8 233.2 100 232.4 99.6002 231.2C99.6002 229.6 100.8 228.8 102 228.4C106 228.4 109.6 230.4 110.4 234.4C111.6 238.4 110 243.2 106 244.8C100.8 247.6 94.8002 246.4 90.8002 242.4C86.8002 238 86.4002 231.6 90.0002 226C93.2002 220.4 99.6002 217.6 106.8 218C115.6 218.8 123.6 224 127.2 232C128.8 235.6 129.6 240.4 129.6 244.4Z" fill="#EADBD9"/>
<path d="M151.2 270.8C151.2 272.133 150.8 273.6 150 275.2C148.4 278.8 144 280.8 139.6 280C134.4 279.2 132.8 276 132.4 273.2C132.4 269.6 134.8 266.8 138 266.4C139.6 266 140.8 266.8 140.8 268C141.2 269.6 140 270.8 138.8 270.8C138 270.8 137.2 272 137.2 272.8C137.2 274.4 138.4 275.2 140.4 275.6C142.8 276 144.8 274.8 146 272.8C147.2 270.8 146.4 268.8 144.8 266.8C142.8 264.4 139.6 263.6 137.6 263.6C131.6 263.2 125.2 265.6 120.8 269.6C119.6 270.8 118.4 270.4 117.2 269.6C116.4 268.8 116.4 267.2 117.6 266.4C122.8 261.6 130.8 258.8 137.6 259.2C142 259.2 145.6 260.8 148.4 263.6C150.4 265.6 151.2 268.4 151.2 270.8Z" fill="#EADBD9"/>
<path d="M208.8 268C208.8 271.2 207.2 274.4 204.4 276.4C197.6 281.2 184.8 278.4 173.6 269.2C170 266.4 165.6 265.2 161.6 266C156.4 266.8 152.4 270 150.8 272.8C150.4 274 148.8 274.4 147.6 274C146.4 273.2 146 272 146.8 270.8C148.8 266.8 154 262.4 160.8 261.2C164.8 260.4 170.4 260.8 176.4 265.6C186.8 274 197.2 275.6 201.6 272.4C204 270.8 204 268.4 203.6 266.4C203.2 264.4 201.6 262.4 198.8 262C196.4 261.6 195.2 262.8 194.8 264C194.8 264 194.4 264.8 195.2 265.2C196.4 266 196.8 267.2 196.4 268.4C196 269.6 194.4 270 193.2 269.6C190.8 268 189.6 265.2 190.4 262.4C191.2 259.6 194.4 256.8 199.6 257.6C203.6 258 207.2 260.8 208.4 265.2C208.667 266.267 208.8 267.2 208.8 268Z" fill="#EADBD9"/>
<path d="M71.6004 266.8C71.6004 271.2 69.2003 274.4 66.4003 276.4C62.0003 278.8 56.8004 278.4 53.6004 275.2C49.6004 271.2 50.0004 266.8 51.6004 263.6C53.6004 260 58.0004 259.2 60.8004 260.4C64.0003 261.6 65.2004 264.8 64.0004 268C63.6004 269.2 62.4004 270 61.2004 269.6C60.0004 269.2 59.2004 267.6 59.6004 266.4C60.0004 266.4 60.4004 265.2 58.8004 264.8C58.0004 264.4 56.8004 264.4 55.6004 266C55.2004 266.8 54.0004 269.2 56.8004 272C58.4004 273.6 61.6004 274 64.0004 272.4C66.8004 270.4 68.0004 266.8 66.0004 262.8C65.6004 261.6 66.4004 260 67.6004 259.6C68.8004 259.2 70.0003 260 70.8003 261.2C71.3337 263.067 71.6004 264.933 71.6004 266.8Z" fill="#EADBD9"/>
<path d="M69.6004 232.8C69.6004 232.8 69.6004 232.933 69.6004 233.2C69.6004 234.4 68.4003 235.2 66.8003 234.8C63.067 234.267 60.1337 235.067 58.0004 237.2C54.8004 240 53.2003 246 54.4003 252C56.0003 262.8 50.4003 276 38.8003 278.4C33.2003 279.6 27.6003 278 24.4003 274C21.6003 270.4 20.8003 266 22.8003 262C24.8003 256.8 30.4003 255.6 34.8003 256.8C38.8003 258 41.2003 261.2 40.4003 264.8C40.0003 266 38.8004 266.8 37.6004 266.4C36.4004 266 35.2004 264.8 35.6004 263.6C36.0004 262.4 34.4003 261.6 33.2003 261.2C31.6003 260.8 28.4003 260.8 27.2003 263.6C26.0003 266.4 26.4003 268.8 28.0003 271.2C30.0003 273.6 34.0003 274.4 38.0003 273.6C46.8003 272 50.8004 261.2 49.6004 252.4C48.8004 246.8 49.6003 238.8 54.8003 234C56.8003 231.6 61.2004 229.2 68.0004 230.4C68.8004 230.8 69.6004 231.6 69.6004 232.8Z" fill="#EADBD9"/>
<path d="M46.0002 237.6C46.0002 238.933 46.1336 240.267 46.4002 241.6C46.4002 242.933 46.4002 244.4 46.4002 246L46.4002 248C46.4002 248.8 46.2669 249.467 46.0002 250C46.0002 250.8 45.8669 251.6 45.6003 252.4C45.6003 252.666 45.4669 253.067 45.2002 253.6C45.2002 253.867 45.0669 254.133 44.8002 254.4C44.2669 256 43.3336 257.466 42.0002 258.8C40.4002 260 38.8002 260.8 36.8002 261.2C35.2002 261.6 33.6002 261.6 32.4002 261.6C30.8002 261.6 29.2002 261.6 28.0002 261.6C26.6669 261.6 25.3336 261.6 24.0002 261.6C22.6669 261.333 21.3336 261.333 20.0002 261.6C17.6002 261.867 15.4669 262.533 13.6003 263.6C12.5336 264.133 11.6002 264.8 10.8002 265.6C10.2669 266.667 9.60021 267.733 8.80021 268.8C7.60021 271.2 6.80023 273.6 6.00023 276.4C5.46689 273.466 5.46689 270.667 6.00023 268C6.26689 266.4 6.80026 264.933 7.60026 263.6C8.40026 262 9.33358 260.667 10.4002 259.6C12.8002 257.6 16.4002 256.4 19.2002 255.6C20.8002 255.6 22.4002 255.466 24.0002 255.2C25.3336 255.2 26.8002 255.333 28.4002 255.6C29.6002 255.6 30.8002 255.6 32.4002 255.6C33.7336 255.6 34.8003 255.6 35.6003 255.6C36.6669 255.333 37.6002 255.066 38.4002 254.8C39.2002 254.266 39.8669 253.466 40.4002 252.4C40.6669 252.133 40.8002 251.867 40.8002 251.6C41.0669 251.333 41.2002 251.066 41.2002 250.8C41.4669 250.266 41.7336 249.733 42.0002 249.2C42.2669 248.4 42.5335 247.733 42.8002 247.2L43.6003 245.2C43.6003 244.666 43.7336 244.133 44.0002 243.6L44.8002 241.6C45.0669 240.267 45.4669 238.933 46.0002 237.6Z" fill="#EADBD9"/>
<path d="M122.8 260.4C129.2 249.6 140.8 248.4 140.8 248.4C140.8 248.4 133.6 244.4 129.2 246L127.2 246C127.2 246 125.6 240.8 121.6 238.4C117.6 236 116.4 236 116.4 236C116.4 236 121.6 241.2 122.4 246.8C123.6 252.8 122.8 260.4 122.8 260.4Z" fill="#EADBD9"/>
<path d="M68.4003 235.2C66.0003 242.4 68.4003 247.6 70.8003 250C70.8003 250 65.6003 250 62.8003 243.6C62.8003 243.6 59.6003 248.4 57.2003 250C57.2003 250 59.6003 246 60.4003 241.2C61.6003 236.4 64.8003 232 66.4003 230.8C68.0003 230 70.0003 228 68.4003 235.2Z" fill="#EADBD9"/>
<path d="M116.4 272.8C124 266.4 132 270.8 132 270.8C132 270.8 131.2 266.8 125.6 265.2L121.6 266.8L116.4 272.8Z" fill="#EADBD9"/>
<path d="M140.8 215.2C125.2 204 113.6 211.6 113.6 211.6C113.6 211.6 124 193.6 140.8 215.2Z" fill="#EADBD9"/>
<path d="M149.2 272.8C155.6 266.8 164 270 164 270C164 270 162 265.2 157.2 265.6C152.4 266 149.6 270.4 149.2 272.8Z" fill="#EADBD9"/>
<path d="M67.6002 272C66.8002 277.6 70.8001 279.6 70.8001 279.6C70.8001 279.6 70.0002 272.4 71.6002 268.8C72.8002 264.8 68.8002 266 67.6002 272Z" fill="#EADBD9"/>
<path d="M68.4003 228.8C61.6003 230 53.6003 230 53.6003 230C53.6003 230 54.8003 232.8 59.2003 233.6C64.0003 234 68.4003 228.8 68.4003 228.8Z" fill="#EADBD9"/>
<path d="M90.0003 178.4C90.0003 187.2 87.2002 196 81.2002 203.2C70.4002 216.4 52.4003 219.2 41.6003 214C35.6003 211.2 32.8003 206 34.4003 200C35.2003 196.8 37.6002 194.8 40.8002 194C44.0002 193.2 48.4002 194.4 50.4002 197.2C52.0002 198.8 52.0002 201.2 51.2002 203.2C50.8002 204.4 49.2003 205.2 48.0003 204.4C46.8003 204 46.4002 202.8 46.8002 201.6C47.2002 201.2 47.2002 200.8 46.8002 200C46.0002 198.8 43.6003 198 41.6003 198.4C40.2669 198.933 39.4669 199.866 39.2002 201.2C38.0002 206 41.2002 208.4 44.0002 210C51.6002 213.6 67.6002 212.4 77.2002 200.4C84.4002 192 86.8002 181.6 84.8002 171.2C82.4002 160.4 74.8003 150.8 63.6003 145.2C58.0003 142 51.2002 140.4 44.8002 138.4C37.6002 136.4 30.8002 134.4 25.2002 131.2C21.2002 128.4 18.0003 124 17.6003 119.6C17.2003 115.6 18.8003 112 21.6003 109.6C27.2003 104.8 35.6002 104.8 40.8002 109.6C45.2002 114 44.8002 119.2 42.4002 122.4C40.0002 125.2 35.2002 126.4 30.0002 123.2C28.8002 122.4 28.8003 120.8 29.6003 119.6C30.0003 118.8 31.6002 118.4 32.8002 119.2C35.2002 120.8 37.2002 120.8 38.8002 119.2C40.0002 118 40.0003 115.2 37.6003 113.2C34.0003 110 28.4002 109.6 24.8002 112.8C22.9335 114.666 22.1336 116.666 22.4002 118.8C22.4002 122 24.8003 125.2 27.6003 127.2C32.8003 130 39.2002 132 46.0002 134C52.8002 136 59.6003 138 66.0003 141.2C78.0003 147.6 86.8002 158 89.2002 170.4C89.7336 173.066 90.0003 175.733 90.0003 178.4Z" fill="#EADBD9"/>
<path d="M55.6003 214C55.6003 214.533 55.3336 215.067 54.8003 215.6C49.6003 222 40.0003 224.4 29.6003 221.6C19.2003 218.8 5.60029 210 2.80029 193.6C0.400286 179.2 7.20028 168 14.8003 162.8C20.8003 158.8 28.0003 159.6 32.0003 162.4C36.8003 165.2 38.8003 171.2 36.8003 176.4C35.6003 180.8 31.6003 183.6 26.8003 183.2C20.8003 183.2 17.6003 179.6 17.6003 176C17.2003 172 20.0003 168.8 23.6003 168.4C24.8003 168 26.0003 169.2 26.4003 170.4C26.4003 171.6 25.6003 172.8 24.0003 172.8C22.8003 173.2 22.0003 174.4 22.0003 175.6C22.4003 177.6 24.0003 178.8 26.8003 178.8C30.8003 178.8 32.0003 176 32.4003 174.8C33.2003 172 32.8003 168 29.6003 166C26.8003 164.4 21.6003 164 17.2003 166.8C10.8003 170.8 5.20033 180.4 7.60034 192.8C10.0003 206.8 21.6003 214.8 30.8003 217.2C39.6003 219.2 47.2003 217.6 51.2003 212.8C52.0003 211.6 53.6003 211.6 54.4003 212.4C55.2003 212.933 55.6003 213.467 55.6003 214Z" fill="#EADBD9"/>
<path d="M66.0003 179.6C66.0003 186 62.8003 191.6 57.6003 194.4C52.0003 198 45.2003 197.6 40.8003 193.6C36.4003 189.6 35.6003 183.6 38.4003 178.4C40.0003 174.8 44.8003 173.2 49.2003 174.4C52.8003 175.2 55.2003 178.4 54.8003 182.8C54.8003 184 53.6002 184.8 52.4002 184.8C51.2002 184.8 50.0002 183.6 50.4002 182.4C50.4002 180.533 49.467 179.333 47.6003 178.8C46.0003 178.4 43.2003 178.8 42.4003 180.4C40.8003 184 41.2003 187.6 44.0003 190C46.4003 192 50.4003 193.2 55.2003 190.4C59.2003 188 61.6003 183.6 61.2003 178.4C60.8003 172.8 56.8003 165.6 49.6003 162.4C41.6003 158.8 31.2003 159.6 29.2003 163.6C28.4003 164.8 27.2003 165.2 26.0003 164.8C24.8003 164 24.4003 162.8 24.8003 161.6C28.4003 154.4 42.0003 154 51.6003 158C59.6003 161.6 65.2003 169.2 65.6003 178C65.867 178.533 66.0003 179.067 66.0003 179.6Z" fill="#EADBD9"/>
<path d="M24.0003 148.8C24.0003 155.2 20.8003 162.4 16.4003 167.6C15.6003 168.4 14.0002 168.4 12.8002 167.6C12.0002 166.8 12.0002 165.2 12.8002 164.4C16.8002 160 19.2003 153.6 19.2003 148C18.8003 146 18.4003 142.8 16.0003 140.8C14.0003 139.2 11.6003 138.4 9.60029 139.6C7.60029 140.4 6.80024 142.8 6.80024 145.2C7.20024 147.2 8.00029 148 9.60029 148C10.4003 148 11.6003 147.6 11.6003 146.4C12.0003 145.2 13.2003 144.4 14.4003 144.8C15.6003 144.8 16.8003 146 16.4003 147.2C16.0003 150.4 12.8003 152.8 9.60029 152.8C6.80029 152.8 2.80028 150.8 2.40028 146C1.60028 141.6 3.60029 137.2 7.60029 135.6C11.2003 133.6 15.6003 134.4 19.2003 137.6C22.0003 140 23.6003 143.2 23.6003 147.6C23.867 148.133 24.0003 148.533 24.0003 148.8Z" fill="#EADBD9"/>
<path d="M25.6003 88.3999C25.6003 92.7999 23.2003 95.2 20.4003 96C17.2003 97.2 14.4003 96 13.2003 93.6C12.4003 92.4 12.8003 90.8 14.0003 90.4C15.2003 89.6 16.8003 90 17.2003 91.2C17.6003 92 18.8002 92 18.8002 91.6C20.0002 91.6 21.2002 90.4 20.8002 87.6C20.4002 85.2 18.0003 83.6 16.4003 83.2C14.4003 82.8 11.6003 82.8 10.0003 85.2C6.80026 89.2 8.40028 99.6 17.2003 109.6C22.0003 115.6 22.4003 121.2 21.6003 125.2C20.4003 131.6 15.6003 136.8 12.0003 138.8C10.8003 139.6 9.20026 139.2 8.80026 138C8.00026 136.8 8.40031 135.6 9.60031 134.8C12.4003 133.2 16.0003 129.2 16.8003 124.4C17.6003 120.4 16.4003 116.4 13.6003 112.8C4.0003 102 1.20029 89.2 6.40028 82.4C8.80028 78.8 13.2003 77.6 17.6003 78.8C22.0003 80 24.8003 83.2 25.6003 87.2C25.6003 87.7333 25.6003 88.1333 25.6003 88.3999Z" fill="#EADBD9"/>
<path d="M23.2003 215.6C23.2003 215.867 23.2003 216.133 23.2003 216.4C22.8003 217.6 21.2002 218 20.0002 217.6C15.6002 216 12.0002 216.8 10.0003 220C8.80025 222.4 8.80028 225.2 10.4003 226.8C13.2003 229.2 16.0002 228.4 16.8002 228C18.4002 226.8 18.4003 225.6 18.0003 224.8C17.6003 223.6 16.4003 224 16.0003 224C14.8003 224.4 13.6003 223.6 13.2003 222.4C12.8003 221.2 13.2003 220 14.4003 219.6C17.6003 218.4 20.8003 219.6 22.4003 222.8C23.6003 225.6 22.8003 229.6 19.2003 232C16.0003 233.6 11.2003 234 7.20026 230C4.00026 226.8 3.60025 221.6 6.00025 217.6C8.80025 213.6 14.0003 210.4 21.6003 213.2C22.8003 213.6 23.2003 214.4 23.2003 215.6Z" fill="#EADBD9"/>
<path d="M53.2002 219.2C53.2002 224 51.6002 227.2 49.6003 228.8C44.8003 234 36.4002 234.8 30.4002 234C21.6002 232.4 10.8002 236.4 8.80021 245.2C8.00021 249.2 8.80026 252.8 11.6003 254.8C13.6003 256.8 16.4002 256.8 18.8002 256C22.0002 254.4 22.0003 251.2 21.6003 249.6C21.2003 248.8 20.4002 247.2 19.2002 247.6C17.6002 247.6 16.4002 246.8 16.4002 245.6C16.0002 244.4 16.8002 243.2 18.0002 242.8C21.6002 242.4 24.8002 244.4 26.0002 248.4C27.6002 252.4 26.0002 258 20.8002 260C16.8002 262 12.0002 261.2 8.40025 258.4C4.40025 255.2 2.80022 250 4.00022 244.4C6.80022 232.8 20.0002 227.6 31.2002 229.2C37.2002 230 43.2002 228.8 46.4002 225.6C48.5336 223.467 49.2002 220.533 48.4002 216.8C48.0002 215.6 49.2002 214.4 50.4002 214C51.6002 214 52.8002 214.8 53.2002 216C53.2002 217.333 53.2002 218.4 53.2002 219.2Z" fill="#EADBD9"/>
<path d="M46.0002 237.6C44.4002 237.867 42.9336 238.266 41.6003 238.8L39.6003 239.2C39.0669 239.466 38.4003 239.733 37.6003 240L36.0002 240.4C35.2002 240.666 34.5336 240.933 34.0002 241.2C33.4669 241.466 32.9336 241.733 32.4003 242C32.1336 242 31.8669 242.133 31.6003 242.4C31.3336 242.4 31.0669 242.533 30.8002 242.8C29.7336 243.333 28.9336 244 28.4003 244.8C27.8669 245.6 27.4669 246.4 27.2003 247.2C27.2003 248.266 27.2003 249.466 27.2003 250.8C27.2003 252.4 27.2003 253.2 27.6003 254.8C27.6003 256.133 27.6003 257.466 27.6003 258.8C27.6003 260.4 27.4669 262 27.2003 263.6C26.8003 266.4 25.6003 269.6 23.2003 272C22.1336 273.333 20.8003 274.266 19.2003 274.8C17.8669 275.6 16.4002 276.133 14.8002 276.4C11.8669 276.933 8.93358 276.933 6.00025 276.4C8.80025 275.6 11.6003 274.8 14.0002 273.6C15.0669 273.067 16.0002 272.4 16.8002 271.6C17.8669 270.8 18.6669 270 19.2003 269.2C20.4003 267.2 21.2003 265.2 21.2003 262.8C21.2003 261.466 21.2003 260.133 21.2003 258.8C21.2003 257.733 21.2003 256.533 21.2003 255.2C21.2003 253.6 21.2003 252 21.2003 250.8C21.2003 249.6 21.2003 248 21.6003 246C22.0003 244.4 22.8002 242.8 24.0002 241.2C25.6002 240 26.8003 239.2 28.4003 238.4C28.6669 238.4 29.0669 238.267 29.6003 238C29.8669 238 30.2669 237.867 30.8002 237.6C31.3336 237.6 32.0002 237.466 32.8002 237.2C33.6002 237.2 34.4003 237.066 35.2003 236.8L37.2003 236.8C38.8003 236.8 40.2669 236.8 41.6003 236.8C42.9336 237.066 44.4002 237.333 46.0002 237.6Z" fill="#EADBD9"/>
<path d="M22.4003 162.4C33.6003 156 34.4003 144.4 34.4003 144.4C34.4003 144.4 38.8003 151.6 37.2003 156L37.2003 158C37.2003 158 42.4002 159.6 44.8002 163.6C47.2002 167.2 47.2003 168.4 47.2003 168.4C47.2003 168.4 42.4003 163.6 36.4003 162.4C30.4003 161.6 22.4003 162.4 22.4003 162.4Z" fill="#EADBD9"/>
<path d="M48.0004 215.6C40.8004 217.6 35.2003 215.6 32.8003 213.2C32.8003 213.2 32.8003 218 39.6003 220.8C39.6003 220.8 34.4003 224 33.2003 226.4C33.2003 226.4 37.2003 224 42.0003 223.2C46.8003 222 51.6003 219.2 52.4003 217.6C53.6003 216 55.6004 214 48.0004 215.6Z" fill="#EADBD9"/>
<path d="M66.4001 144.8C79.6001 158.4 74.0002 170.8 74.0002 170.8C74.0002 170.8 90.4001 158 66.4001 144.8Z" fill="#EADBD9"/>
<path d="M9.60034 136.4C16.0003 130.4 12.8003 122 12.8003 122C12.8003 122 17.2003 123.6 17.2003 128.4C16.8003 133.2 12.0003 136 9.60034 136.4Z" fill="#EADBD9"/>
<path d="M10.4003 216.4C4.80033 216.8 2.80029 212.8 2.80029 212.8C2.80029 212.8 10.0003 213.6 14.0003 212.4C17.6003 211.2 16.8003 215.2 10.4003 216.4Z" fill="#EADBD9"/>
<path d="M54.8003 215.6C53.6003 222 53.6003 230 53.6003 230C53.6003 230 50.8003 228.8 50.0003 224.4C49.2003 220 54.8003 215.6 54.8003 215.6Z" fill="#EADBD9"/>
<path d="M114 188.8C113.2 189.867 112.267 190.533 111.2 190.8C109.867 191.067 108.667 191.067 107.6 190.8C105.2 190 103.2 188 102.4 185.6C102 184.4 102 182.8 102.4 181.6C102.667 180.267 103.2 179.067 104 178C105.6 176 108 174.4 110.4 173.6C113.2 173.2 116 173.6 118.8 174.8C121.2 176 123.2 178 124.4 180.4C125.6 182.8 126 185.2 126 188C126 190.4 125.467 192.8 124.4 195.2C123.6 197.333 122.4 199.467 120.8 201.6C119.2 203.467 117.467 205.067 115.6 206.4C111.6 208.8 107.2 210.8 102.4 212C98.0002 212.8 93.2002 213.2 88.8002 212.8C86.4002 212.533 84.1336 212 82.0003 211.2C80.9336 210.933 79.8668 210.533 78.8002 210C78.0002 209.2 77.2002 208.4 76.4002 207.6C78.2668 208.667 80.2668 209.467 82.4002 210C84.5335 210.267 86.6668 210.267 88.8002 210C93.2002 210 97.2002 209.2 101.2 207.6C105.2 206.4 109.2 204.4 112.4 202C114 200.8 115.6 199.6 116.8 198C117.867 196.667 118.8 195.067 119.6 193.2C120.8 189.6 121.2 185.6 119.6 182.4C119.334 182.133 119.067 181.867 118.8 181.6C118.8 181.067 118.667 180.667 118.4 180.4C117.867 180.133 117.467 179.867 117.2 179.6C117.2 179.333 117.067 179.2 116.8 179.2L116.4 178.8C114.8 178 113.2 177.6 111.6 178C109.6 178 108 178.8 106.8 180.4C105.6 181.6 104.8 183.2 105.2 185.2C105.2 186.8 106.4 188.4 108 189.2C110 190.4 112 190.4 114 188.8Z" fill="#EADBD9"/>
<path d="M220 269.6C220.4 274.4 228.4 276.4 230.8 269.2C232.8 262.4 226.4 258.8 221.6 259.2C216.8 259.6 211.2 263.6 212 272.4C213.2 281.6 218.8 281.6 230 281.6C241.2 281.6 360 281.6 360 281.6L360 276C360 276 229.2 276 222.8 276C216.8 276 214.8 269.6 217.2 266C219.6 262.8 224 263.2 225.6 265.2C227.2 266.8 226.4 268.8 225.6 269.6C224.4 270.4 226.4 268.4 224 267.2C222 266 220 268 220 268L220 269.6Z" fill="#EADBD9"/>
</g>
<defs>
<clipPath id="clip0_1_2008">
<rect width="280" height="280" fill="white"/>
</clipPath>
</defs>
</svg>
