<svg width="280" height="280" viewBox="0 0 280 280" fill="none" xmlns="http://www.w3.org/2000/svg">
<g clip-path="url(#clip0_3_3640)">
<rect width="280" height="280" fill="white"/>
<path d="M102.4 29.5997C102.4 26.3997 103.6 23.1997 106 20.3997C108.4 17.5997 112 15.9997 116 16.3997C120.8 16.7997 125.6 19.9997 128 23.9997C131.2 29.5997 133.2 35.9997 135.6 43.1997C137.2 49.1997 139.2 55.9997 142.4 61.5997C148.4 72.3997 158 79.5997 169.2 81.9997C179.6 83.9997 190 81.5997 198.8 74.7997C211.2 65.5997 212.4 49.9997 208.4 41.9997C207.2 39.1997 204.4 36.3997 199.6 37.5997C198.267 37.8663 197.467 38.6663 197.2 39.9997C196.8 41.9997 197.6 43.9997 198.4 44.7997C199.2 45.5997 199.6 45.1997 200 45.1997C201.2 44.7997 202.8 45.1997 203.2 46.3997C203.6 47.5997 203.2 48.7997 202 49.1997C199.6 50.3997 197.6 49.9997 195.6 48.3997C192.8 46.3997 191.6 42.3997 192.4 39.1997C193.2 35.9997 195.2 33.9997 198.4 33.1997C204.4 31.5997 210 33.9997 212.8 39.9997C218 50.3997 215.2 67.9997 202 78.3997C192 85.9997 180 88.7997 168 86.3997C155.6 83.9997 144.8 75.5997 138 63.5997C134.8 57.5997 132.8 50.7997 130.8 44.3997C128.8 37.5997 126.8 31.1997 124 26.3997C122 23.5997 118.8 21.1997 115.6 21.1997C113.2 20.933 111.067 21.733 109.2 23.5997C106 27.1997 106.4 32.7997 109.6 35.9997C112 38.3997 114.4 38.3997 116 37.1997C117.6 35.9997 117.6 33.5997 116 31.1997C115.2 30.3997 115.2 28.7997 116.4 27.9997C117.6 27.1997 118.8 27.5997 119.6 28.7997C123.2 33.5997 122 38.3997 119.2 40.7997C116 43.1997 110.4 43.5997 106 39.1997C103.6 36.7997 102.4 33.1997 102.4 29.5997Z" fill="#EADBD9"/>
<path d="M157.6 22.8C157.6 20 158.4 16.8 160.4 13.6C165.6 6.39998 177.2 -0.400026 192 1.99997C208.8 4.79997 218 18 220.8 28.4C223.2 38.4 220.8 48 214.4 52.8C213.2 53.6 212 53.6 211.2 52.8C210.4 51.6 210.4 50 211.6 49.2C216.4 45.6 218.4 38 216 29.6C213.6 20.4 205.6 8.79997 191.2 6.39997C178.4 4.39997 168.8 9.99997 164.4 16.4C161.6 20.4 162 25.6 164 28C166 31.2 170 32 172.8 31.2C174 30.8 176.8 29.2 176.8 25.6C176.8 22.8 175.6 21.2 173.6 20.8C172.4 20.8 170.8 21.6 170.8 22.8C170.4 24.4 169.2 25.2 168 24.8C166.8 24.8 166 23.6 166 22.4C166.4 18.8 170 16 173.6 16.4C177.6 16.4 181.2 19.6 181.6 25.6C181.6 30.4 178.8 34 174 35.6C168.8 37.2 162.8 35.2 160 30.8C158.4 28.8 157.6 26 157.6 22.8Z" fill="#EADBD9"/>
<path d="M152.8 37.1997C152.8 31.1997 154.8 25.5997 159.2 23.5997C160.4 23.1997 162 23.5997 162.4 24.7997C163.2 25.5997 162.4 27.1997 161.2 27.5997C157.2 29.9997 156.4 39.9997 160 47.9997C163.2 54.7997 170.4 58.3997 176.4 58.7997C182 59.1997 186.4 57.1997 188.8 53.1997C191.6 48.7997 190.4 44.7997 188.4 42.3997C186 39.5997 182 39.1997 178.8 40.7997C176.8 41.5997 176.4 43.9997 176.8 45.9997C177.333 47.5997 178.533 48.3997 180.4 48.3997C181.6 48.3997 182.8 49.1997 182.8 50.3997C183.2 51.9997 182 52.7997 180.8 53.1997C176.4 53.1997 173.2 51.1997 172 47.1997C170.8 43.1997 172.8 38.3997 176.4 36.7997C182 33.9997 188 35.1997 192 39.1997C196 43.5997 196.4 49.9997 192.8 55.5997C189.6 61.1997 183.2 63.9997 176 63.5997C167.2 62.7997 159.2 57.5997 155.6 49.5997C154 45.9997 152.8 41.1997 152.8 37.1997Z" fill="#EADBD9"/>
<path d="M131.6 10.7999C131.6 9.46656 131.867 7.9999 132.4 6.3999C134.4 2.7999 138.8 0.799902 143.2 1.5999C148.4 2.3999 150 5.5999 150 8.3999C150 11.9999 147.6 14.7999 144.4 15.1999C143.2 15.5999 142 14.7999 142 13.5999C141.6 11.9999 142.4 10.7999 143.6 10.7999C144.8 10.7999 145.2 9.5999 145.2 8.7999C145.2 7.1999 144.4 6.3999 142.4 5.9999C140 5.5999 137.6 6.7999 136.8 8.7999C135.6 10.7999 136 12.7999 138 14.7999C140 17.1999 143.2 17.9999 145.2 17.9999C150.8 18.3999 157.6 15.9999 162 11.9999C162.8 10.7999 164.4 11.1999 165.2 11.9999C166.4 12.7999 166 14.3999 165.2 15.1999C159.6 19.9999 152 22.7999 145.2 22.3999C140.4 22.3999 136.8 20.7999 134.4 17.9999C132.4 15.9999 131.6 13.1999 131.6 10.7999Z" fill="#EADBD9"/>
<path d="M74 13.5997C74 10.3997 75.6 7.19968 78 5.19968C84.8 0.399679 97.9999 3.19968 109.2 12.3997C112.8 15.1997 116.8 16.3997 121.2 15.5997C126.4 14.7997 130.4 11.5997 131.6 8.79967C132.4 7.59967 134 7.19967 135.2 7.59967C136 8.39967 136.4 9.59967 136 10.7997C133.6 14.7997 128.8 19.1997 122 20.3997C118 21.1997 112 20.7997 106 15.9997C96 7.59967 85.1999 5.99968 80.7999 9.19968C78.7999 10.7997 78.4 13.1997 79.2 15.1997C79.6 17.1997 81.2 19.1997 83.6 19.5997C86 19.9997 87.6 18.7997 87.6 17.5997C88 17.5997 88 16.7997 87.2 16.3997C86 15.5997 85.5999 14.3997 86.3999 13.1997C86.7999 11.9997 88.4 11.5997 89.6 11.9997C92 13.5997 93.1999 16.3997 92.3999 19.1997C91.1999 21.9997 88 24.7997 83.2 23.9997C79.2 23.5997 75.5999 20.7997 74.3999 16.3997C74.1332 15.333 74 14.3997 74 13.5997Z" fill="#EADBD9"/>
<path d="M210.8 14.8001C210.8 10.4001 213.6 7.20008 216.4 5.20008C220.8 2.80008 226 3.20008 229.2 6.40008C233.2 10.4001 232.8 14.8001 231.2 18.0001C228.8 21.6001 224.8 22.4001 221.6 21.2001C218.8 20.0001 217.2 16.8001 218.4 13.6001C218.8 12.4001 220.4 11.6001 221.6 12.0001C222.8 12.4001 223.2 14.0001 222.8 15.2001C222.8 15.2001 222.4 16.4001 223.6 16.8001C224.4 17.2001 226 17.2001 226.8 15.6001C227.2 14.8001 228.4 12.4001 225.6 9.60008C224 8.00008 221.2 7.60008 218.8 9.20008C215.6 11.2001 214.8 14.8001 216.4 18.8001C216.8 20.0001 216.4 21.6001 215.2 22.0001C214 22.4001 212.4 21.6001 212 20.4001C211.2 18.5334 210.8 16.6667 210.8 14.8001Z" fill="#EADBD9"/>
<path d="M212.8 48.7998C212.8 48.7998 212.8 48.6665 212.8 48.3998C213.2 47.1998 214.4 46.3998 215.6 46.7998C219.6 47.3331 222.667 46.5331 224.8 44.3998C228 41.5998 229.2 35.5998 228.4 29.5998C226.8 18.7998 232.4 5.5998 243.6 3.1998C249.6 1.9998 255.2 3.5998 258.4 7.59979C261.2 11.1998 262 15.5998 260 19.5998C257.6 24.7998 252.4 25.9998 248 24.7998C244 23.5998 241.6 20.3998 242.4 16.7998C242.8 15.5998 244 14.7998 245.2 15.1998C246.4 15.5998 247.2 16.7998 247.2 17.9998C246.8 19.1998 248.4 19.9998 249.2 20.3998C251.2 20.7998 254.4 20.7998 255.6 17.9998C256.8 15.1998 256.4 12.7998 254.8 10.3998C252.4 7.99979 248.8 7.19979 244.8 7.99979C236 9.5998 231.6 20.3998 233.2 29.1998C234 34.7998 233.2 42.7998 228 47.5998C225.6 49.9998 221.6 52.3998 214.8 51.1998C213.6 50.7998 212.8 49.9998 212.8 48.7998Z" fill="#EADBD9"/>
<path d="M236.8 43.9997C236.533 42.6664 236.4 41.333 236.4 39.9997C236.133 38.6664 236.133 37.1997 236.4 35.5997L236.4 33.5997C236.4 32.7997 236.533 32.133 236.8 31.5997C236.8 30.7997 236.933 29.9997 237.2 29.1997C237.2 28.933 237.333 28.533 237.6 27.9997C237.6 27.733 237.733 27.4664 238 27.1997C238.533 25.5997 239.467 24.133 240.8 22.7997C242 21.5997 244 20.7997 245.6 20.3997C247.6 19.9997 249.2 19.9997 250.4 19.9997C251.6 19.9997 253.6 19.9997 254.8 19.9997C256.133 19.9997 257.467 19.9997 258.8 19.9997C260.133 20.2664 261.333 20.2664 262.4 19.9997C265.067 19.733 267.333 19.0664 269.2 17.9997C270 17.4664 270.8 16.7997 271.6 15.9997C272.4 14.933 273.067 13.8664 273.6 12.7997C274.8 10.3997 275.6 7.9997 276.4 5.1997C277.2 8.13303 277.333 10.933 276.8 13.5997C276.533 15.1997 276 16.6664 275.2 17.9997C274.4 19.5997 273.333 20.933 272 21.9997C269.6 23.9997 266.4 25.1997 263.2 25.9997C261.867 25.9997 260.4 26.133 258.8 26.3997C257.2 26.3997 255.733 26.2664 254.4 25.9997C253.2 25.9997 252 25.9997 250.4 25.9997C249.067 25.9997 247.867 25.9997 246.8 25.9997C246 26.2664 245.2 26.533 244.4 26.7997C243.6 27.333 242.933 28.133 242.4 29.1997C242.133 29.4664 242 29.733 242 29.9997C241.733 30.2664 241.467 30.533 241.2 30.7997C240.933 31.333 240.8 31.8664 240.8 32.3997C240.533 33.1997 240.267 33.8664 240 34.3997L239.2 36.3997C238.933 36.933 238.8 37.4664 238.8 37.9997L238 39.9997C237.733 41.333 237.333 42.6664 236.8 43.9997Z" fill="#EADBD9"/>
<path d="M160 21.1997C153.6 31.9997 141.6 33.1997 141.6 33.1997C141.6 33.1997 149.2 37.1997 153.6 35.5997L155.2 35.5997C155.2 35.5997 157.2 40.7997 161.2 43.1997C164.8 45.5997 166 45.5997 166 45.5997C166 45.5997 161.2 40.3997 160 34.7997C159.2 28.7997 160 21.1997 160 21.1997Z" fill="#EADBD9"/>
<path d="M214.4 46.4001C216.8 39.2001 214.4 34.0001 212 31.6001C212 31.6001 217.2 31.6001 219.6 38.0001C219.6 38.0001 223.2 33.2001 225.2 31.6001C225.2 31.6001 223.2 35.6001 222 40.4001C221.2 45.2001 218 49.6001 216.4 50.8001C214.8 51.6001 212.8 53.6001 214.4 46.4001Z" fill="#EADBD9"/>
<path d="M166.4 8.7998C158.8 15.1998 150.8 10.7998 150.8 10.7998C150.8 10.7998 151.6 14.7998 156.8 16.3998L161.2 14.7998L166.4 8.7998Z" fill="#EADBD9"/>
<path d="M142 66.3999C157.6 77.5999 169.2 69.9999 169.2 69.9999C169.2 69.9999 158.4 87.9999 142 66.3999Z" fill="#EADBD9"/>
<path d="M133.6 8.7998C127.2 14.7998 118.8 11.5998 118.8 11.5998C118.8 11.5998 120.4 16.3998 125.2 15.9998C130 15.5998 133.2 11.1998 133.6 8.7998Z" fill="#EADBD9"/>
<path d="M215.2 9.6C215.6 4 211.6 2 211.6 2C211.6 2 212.4 9.2 211.2 12.8C210 16.8 214 15.6 215.2 9.6Z" fill="#EADBD9"/>
<path d="M214.4 52.8C221.2 51.6 229.2 51.6 229.2 51.6C229.2 51.6 228 48.8 223.2 48C218.8 47.6 214.4 52.8 214.4 52.8Z" fill="#EADBD9"/>
<path d="M192.4 103.2C192.4 94.3997 195.6 85.5997 201.6 78.3997C212.4 65.1997 230.4 62.3997 240.8 67.5997C247.2 70.3997 249.6 75.5997 248.4 81.5997C247.2 84.7997 245.2 86.7997 242 87.5997C238.4 88.3997 234.4 87.1997 232.4 84.3997C230.8 82.7997 230.4 80.3997 231.6 78.3997C232 77.1997 233.2 76.3997 234.4 77.1997C235.6 77.5997 236.4 78.7997 235.6 79.9997C235.6 80.3997 235.6 80.7997 236 81.5997C236.8 82.7997 239.2 83.5997 240.8 83.1997C242.4 82.6664 243.333 81.733 243.6 80.3997C244.8 75.5997 241.6 73.1997 238.8 71.5997C230.8 67.9997 214.8 69.1997 205.2 81.1997C198.4 89.5997 196 99.9997 198 110.4C200.4 121.2 208 130.8 219.2 136.4C224.8 139.6 231.6 141.2 238 143.2C245.2 145.2 252 147.2 257.6 150.4C261.6 153.2 264.8 157.6 265.2 162C265.6 166 264 169.6 261.2 172C255.6 176.8 247.2 176.8 241.6 172C237.6 167.6 237.6 162.4 240.4 159.2C242.8 156.4 247.6 155.2 252.8 158.4C253.6 159.2 254 160.8 253.2 162C252.4 162.8 251.2 163.2 250 162.4C247.6 160.8 245.2 160.8 244 162.4C242.8 163.6 242.8 166.4 245.2 168.4C248.4 171.6 254.4 172 258 168.8C259.867 166.933 260.667 164.933 260.4 162.8C260 159.6 258 156.4 254.8 154.4C250 151.6 243.6 149.6 236.8 147.6C230 145.6 222.8 143.6 216.8 140.4C204.8 134 196 123.6 193.6 111.2C192.8 108.533 192.4 105.866 192.4 103.2Z" fill="#EADBD9"/>
<path d="M227.2 67.6001C227.2 67.0667 227.333 66.5334 227.6 66.0001C232.8 59.6001 242.8 57.2001 252.8 60.0001C263.6 62.8001 277.2 71.6001 280 88.0001C282.4 102.4 275.6 113.6 268 118.8C262 122.8 254.4 122 250.4 119.2C246 116.4 244 110.4 245.6 105.2C247.2 100.8 251.2 98.0001 256 98.4001C262 98.4001 265.2 102 265.2 105.6C265.6 109.6 262.8 112.8 259.2 113.2C258 113.6 256.8 112.4 256.4 111.2C256.4 110 257.2 108.8 258.4 108.8C260 108.4 260.4 107.2 260.4 106C260.4 104 258.8 102.8 255.6 102.8C252 102.8 250.4 105.6 250 106.8C249.2 109.6 250 113.6 253.2 115.6C256 117.2 261.2 117.6 265.2 114.8C271.6 110.8 277.2 101.2 275.2 88.8001C272.8 74.8001 261.2 66.8001 251.6 64.4001C243.2 62.4001 235.6 64.0001 231.6 68.8001C230.8 70.0001 229.2 70.0001 228 69.2001C227.467 68.6667 227.2 68.1334 227.2 67.6001Z" fill="#EADBD9"/>
<path d="M216.8 102C216.8 95.5997 220 89.9997 224.8 87.1997C230.8 83.5997 237.2 83.9997 242 87.9997C246 91.9997 247.2 97.9997 244.4 103.2C242.8 106.8 238 108.4 233.6 107.2C229.6 106.4 227.6 103.2 227.6 98.7997C228 97.5997 228.8 96.7997 230.4 96.7997C231.6 96.7997 232.4 97.9997 232.4 99.1997C232.4 101.066 233.2 102.266 234.8 102.8C236.8 103.2 239.2 102.8 240.4 101.2C242 97.5997 241.2 93.9997 238.8 91.5997C236.4 89.5997 232 88.3997 227.2 91.1997C223.2 93.5997 221.2 97.9997 221.6 103.2C222 108.8 225.6 116 232.8 119.2C241.2 122.8 251.6 122 253.6 118C254.4 116.8 255.6 116.4 256.8 116.8C258 117.6 258.4 118.8 258 120C254 127.2 240.8 127.6 231.2 123.6C223.2 120 217.6 112.4 216.8 103.6C216.8 103.066 216.8 102.533 216.8 102Z" fill="#EADBD9"/>
<path d="M258.8 132.8C258.8 126.4 261.6 119.2 266.4 114C267.2 113.2 268.8 113.2 269.6 114C270.8 114.8 270.8 116.4 270 117.2C265.6 121.6 263.2 128 263.6 133.6C263.6 135.6 264.4 138.8 266.8 140.8C268.8 142.4 271.2 143.2 273.2 142C274.8 141.2 276 138.8 275.6 136.4C275.6 134.4 274.4 133.6 273.2 133.6C272.4 133.6 271.2 134 270.8 135.2C270.8 136.4 269.6 137.2 268.4 136.8C266.8 136.8 266 135.6 266.4 134.4C266.8 131.2 269.6 128.8 273.2 128.8C276 128.8 279.6 130.8 280.4 135.6C280.8 140 278.8 144.4 275.2 146C271.6 148 267.2 147.2 263.6 144C260.8 141.6 259.2 138.4 258.8 134C258.8 133.467 258.8 133.067 258.8 132.8Z" fill="#EADBD9"/>
<path d="M257.2 193.2C257.2 188.8 259.6 186.4 262.4 185.6C265.2 184.4 268.4 185.6 269.6 188C270 189.2 269.6 190.8 268.4 191.2C267.6 192 266 191.6 265.2 190.4C264.8 189.6 264 189.6 263.6 190C262.8 190 261.6 191.2 262 194C262.4 196.4 264.4 198 266.4 198.4C268.4 198.8 271.2 198.8 272.8 196.4C276 192.4 274.4 182 265.6 172C260.8 166 260.4 160.4 261.2 156.4C262.4 150 266.8 144.8 270.8 142.8C272 142 273.2 142.4 274 143.6C274.8 144.8 274.4 146 273.2 146.8C270.4 148.4 266.8 152.4 266 157.2C265.2 161.2 266.4 165.2 269.2 168.8C278.8 179.6 281.6 192.4 276.4 199.2C274 202.8 269.6 204 265.2 202.8C260.8 201.6 257.6 198.4 257.2 194.4C257.2 193.867 257.2 193.467 257.2 193.2Z" fill="#EADBD9"/>
<path d="M259.6 65.9997C259.6 65.733 259.6 65.4663 259.6 65.1997C260 63.9997 261.6 63.5997 262.8 63.9997C266.8 65.5997 270.8 64.7997 272.4 61.5997C274 59.1997 274 56.3997 272.4 54.7997C269.6 52.3997 266.8 53.1997 266 53.5997C264.4 54.7997 264.4 55.9997 264.8 56.7997C265.2 57.9997 266.4 57.5997 266.4 57.5997C268 57.1997 269.2 57.9997 269.6 59.1997C270 60.3997 269.2 61.5997 268 61.9997C264.8 63.1997 261.6 61.9997 260.4 58.7997C259.2 55.9997 259.6 51.9997 263.6 49.5997C266.8 47.9997 271.6 47.5997 275.6 51.5997C278.8 54.7997 279.2 59.9997 276.4 63.9997C274 67.9997 268.8 71.1997 260.8 68.3997C260 67.9997 259.6 67.1997 259.6 65.9997Z" fill="#EADBD9"/>
<path d="M229.2 62.3997C229.2 57.5997 231.2 54.3997 233.2 52.7997C238 47.5997 246.4 46.7997 252.4 47.5997C261.2 49.1997 272 45.1997 274 36.3997C274.8 32.3997 273.6 28.7997 271.2 26.7997C269.2 24.7997 266.4 24.7997 263.6 25.5997C260.4 27.1997 260.4 30.3997 261.2 31.9997C261.6 32.7997 262.4 34.3997 263.6 33.9997C264.8 33.9997 266.4 34.7997 266.4 35.9997C266.8 37.1997 266 38.3997 264.8 38.7997C261.2 39.1997 258 37.1997 256.8 33.1997C255.2 29.1997 256.4 23.5997 262 21.5997C266 19.5997 270.8 20.3997 274 23.1997C278 26.3997 279.6 31.5997 278.4 37.1997C276 48.7997 262.4 53.9997 251.6 52.3997C245.6 51.5997 239.6 52.7997 236.4 55.9997C234.267 58.1331 233.6 61.0664 234.4 64.7997C234.4 65.9997 233.6 67.1997 232.4 67.5997C231.2 67.5997 230 66.7997 229.6 65.5997C229.333 64.2664 229.2 63.1997 229.2 62.3997Z" fill="#EADBD9"/>
<path d="M236.8 43.9998C238.133 43.7331 239.467 43.3331 240.8 42.7998L242.8 42.3998C243.6 42.1331 244.267 41.8665 244.8 41.5998L246.8 41.1998C247.333 40.9331 248 40.6665 248.8 40.3998C249.333 40.1331 249.867 39.8665 250.4 39.5998C250.667 39.5998 250.933 39.4665 251.2 39.1998C251.467 39.1998 251.733 39.0665 252 38.7998C253.067 38.2665 253.867 37.5998 254.4 36.7998C254.933 35.9998 255.2 35.1998 255.2 34.3998C255.467 33.3331 255.6 32.1331 255.6 30.7998C255.2 29.1998 255.2 28.3998 255.2 26.7998C255.2 25.4665 255.2 24.1331 255.2 22.7998C255.2 21.1998 255.333 19.5998 255.6 17.9998C256 15.1998 257.2 11.9998 259.6 9.5998C260.667 8.26647 262 7.33313 263.6 6.7998C264.933 5.9998 266.4 5.46647 268 5.1998C270.933 4.66647 273.733 4.66646 276.4 5.1998C274 5.9998 271.2 6.7998 268.8 7.9998C267.733 8.53313 266.667 9.1998 265.6 9.9998C264.8 10.7998 264.133 11.5998 263.6 12.3998C262.4 14.3998 261.6 16.3998 261.6 18.7998C261.333 20.1331 261.2 21.4665 261.2 22.7998C261.467 23.8665 261.6 25.0665 261.6 26.3998C261.6 27.9998 261.6 29.5998 261.6 30.7998C261.6 31.9998 261.6 33.5998 261.2 35.5998C260.8 37.1998 260 38.7998 258.4 40.3998C257.2 41.5998 255.6 42.3998 254.4 43.1998C253.867 43.1998 253.467 43.3331 253.2 43.5998C252.667 43.5998 252.267 43.7331 252 43.9998C251.2 43.9998 250.533 44.1331 250 44.3998C249.2 44.3998 248.4 44.5331 247.6 44.7998L245.6 44.7998C244 44.7998 242.533 44.7998 241.2 44.7998C239.6 44.5331 238.133 44.2665 236.8 43.9998Z" fill="#EADBD9"/>
<path d="M260.4 119.2C249.2 125.6 248 137.2 248 137.2C248 137.2 244 130 245.6 125.6L245.6 123.6C245.6 123.6 240.4 122 238 118C235.6 114.4 235.6 113.2 235.6 113.2C235.6 113.2 240.4 118 246.4 119.2C252.4 120 260.4 119.2 260.4 119.2Z" fill="#EADBD9"/>
<path d="M234.4 65.9997C241.6 63.9997 247.2 65.9997 249.6 68.3997C249.6 68.3997 250 63.5997 243.2 60.7997C243.2 60.7997 248.4 57.5997 249.6 55.1997C249.6 55.1997 245.2 57.5997 240.8 58.3997C236 59.5997 231.2 62.3997 230 63.9997C229.2 65.5997 227.2 67.5997 234.4 65.9997Z" fill="#EADBD9"/>
<path d="M273.2 113.2C266.4 120.4 270.8 128.4 270.8 128.4C270.8 128.4 267.2 127.6 265.2 122L266.8 118.4L273.2 113.2Z" fill="#EADBD9"/>
<path d="M216.4 136.8C203.2 123.2 208.8 110.8 208.8 110.8C208.8 110.8 192 123.6 216.4 136.8Z" fill="#EADBD9"/>
<path d="M272.8 145.2C266.8 151.2 270 159.6 270 159.6C270 159.6 265.2 158 265.6 153.2C266 148.4 270.8 145.6 272.8 145.2Z" fill="#EADBD9"/>
<path d="M272.4 65.2C278 64.8 280 68.8 280 68.8C280 68.8 272.8 68 268.8 69.2C264.8 70.4 266 66.4 272.4 65.2Z" fill="#EADBD9"/>
<path d="M228 66.0001C229.2 59.6001 229.2 51.6001 229.2 51.6001C229.2 51.6001 232 52.8001 232.8 57.2001C233.2 61.6001 228 66.0001 228 66.0001Z" fill="#EADBD9"/>
<path d="M168.8 92.8C169.333 91.7333 170.267 91.0666 171.6 90.8C172.667 90.5333 173.867 90.5333 175.2 90.8C177.6 91.6 179.6 93.6 180.4 96C180.8 97.2 180.4 98.8 180.4 100C179.867 101.333 179.333 102.533 178.8 103.6C177.2 105.6 174.8 107.2 172 108C169.6 108.4 166.4 108 164 106.8C161.6 105.6 159.6 103.6 158.4 101.2C157.2 98.8 156.8 96.4 156.8 93.6C156.8 91.2 157.2 88.8 158 86.4C158.8 84.2666 160 82.1333 161.6 80C163.467 78.1333 165.333 76.5333 167.2 75.2C171.2 72.8 175.6 70.8 180 69.6C184.8 68.8 189.2 68.4 194 68.8C196.4 69.0666 198.667 69.6 200.8 70.4C201.867 70.6666 202.8 71.0666 203.6 71.6C204.667 72.4 205.6 73.2 206.4 74C204.533 72.9333 202.533 72.1333 200.4 71.6C198.267 71.3333 196.133 71.3333 194 71.6C189.6 71.6 185.2 72.4 181.2 74C177.2 75.2 173.6 77.2 170.4 79.6C168.8 80.8 167.2 82 166 83.6C164.933 84.9333 164 86.5333 163.2 88.4C162 92 161.6 96 163.2 99.2C163.467 99.4666 163.6 99.7333 163.6 100C163.867 100.533 164.133 100.933 164.4 101.2C164.667 101.467 164.933 101.733 165.2 102C165.467 102.267 165.733 102.4 166 102.4L166.4 102.8C168 103.6 169.6 104 171.2 103.6C172.8 103.6 174.4 102.8 175.6 101.2C176.8 100 178 98.4 177.6 96.4C177.6 94.8 176.4 93.2 174.8 92.4C172.8 91.2 170.4 91.2 168.8 92.8Z" fill="#EADBD9"/>
<path d="M187.2 110.8C188.4 108.8 188.4 106.8 187.6 104.8C186.8 103.2 184.8 102 183.2 102C181.6 102 179.6 102.8 178.4 104C176.8 105.2 176 106.4 176 108.4C175.6 110 176 111.6 176.8 112.8L177.2 113.6C177.467 113.6 177.6 113.733 177.6 114C177.867 114.267 178.133 114.533 178.4 114.8C178.933 115.067 179.333 115.333 179.6 115.6C179.867 115.867 180.267 116.133 180.8 116.4C184 117.6 188 117.2 191.6 116C193.467 115.467 195.067 114.533 196.4 113.2C198 112.4 199.6 110.8 200.8 109.2C203.2 106 205.2 102.4 206.4 98.4C207.6 94.4 208.8 90.4 208.8 86C209.067 83.8667 208.933 81.8667 208.4 80C208.133 77.8667 207.467 75.8667 206.4 74C207.2 74.8 207.867 75.6 208.4 76.4C209.2 77.4667 209.733 78.5333 210 79.6C210.8 81.7333 211.333 83.8667 211.6 86C212 90.4 211.6 95.2 210.4 99.6C209.6 104 207.6 108.4 204.8 112C203.467 114.133 201.867 116 200 117.6C197.867 119.2 195.733 120.4 193.6 121.2C191.2 122 188.667 122.4 186 122.4C183.6 122.4 180.8 122 178.4 120.8C176 119.6 174 117.6 172.8 115.2C171.2 112.8 170.8 110 171.6 107.2C172.4 104.8 174 102.4 176 101.2C177.067 100.4 178.267 99.8667 179.6 99.6C180.8 99.2 182.4 99.2 183.6 99.2C186.4 100 188.4 102 189.2 104.4C189.467 105.467 189.467 106.667 189.2 108C188.667 109.067 188 110 187.2 110.8Z" fill="#EADBD9"/>
<path d="M62.7999 12.0001C62.3999 7.20008 54 5.20008 52 12.4001C50 19.2001 56.3999 22.8001 61.1999 22.4001C65.9999 22.0001 71.5999 18.0001 70.3999 9.20008C69.1999 7.94525e-05 63.9999 7.9408e-05 52.7999 8.13663e-05C41.5999 8.33246e-05 -180 0.00012207 -180 0.00012207L-180 5.60012C-180 5.60012 53.6 5.60008 60 5.60008C66 5.60008 67.5999 12.0001 65.1999 15.6001C63.1999 18.8001 58.3999 18.4001 57.1999 16.4001C55.5999 14.8001 55.9999 12.8001 57.1999 12.0001C58.3999 11.2001 55.9999 13.2001 58.3999 14.4001C60.7999 15.6001 62.7999 13.6001 62.7999 13.6001L62.7999 12.0001Z" fill="#EADBD9"/>
<path d="M268.4 214C273.2 214.4 275.2 222.8 268.4 224.8C261.2 226.8 257.6 220.4 258 215.6C258.4 210.8 262.8 205.2 271.2 206.4C280.4 207.6 280.4 212.8 280.4 224C280.4 235.2 280.4 353.2 280.4 353.2L274.8 353.2C274.8 353.2 274.8 223.2 274.8 216.8C274.8 210.8 268.4 209.2 264.8 211.6C261.6 213.6 262 218.4 264 219.6C266 221.2 268 220.8 268.4 219.6C269.2 218.4 267.2 220.8 266 218.4C264.8 216 266.8 214 266.8 214L268.4 214Z" fill="#EADBD9"/>
</g>
<defs>
<clipPath id="clip0_3_3640">
<rect width="280" height="280" fill="white"/>
</clipPath>
</defs>
</svg>
