<svg width="280" height="280" viewBox="0 0 280 280" fill="none" xmlns="http://www.w3.org/2000/svg">
<g clip-path="url(#clip0_3_3844)">
<rect width="280" height="280" fill="white"/>
<path d="M12 215.2C7.20003 215.6 5.20003 224 12 226C19.2 228 22.8001 221.6 22.4001 216.8C22.0001 212 17.6 206.4 9.20004 207.6C4.31539e-05 208.8 3.16653e-05 214 3.36236e-05 225.2C3.55819e-05 236.4 5.62137e-05 354.4 5.62137e-05 354.4L5.60009 354.4C5.60009 354.4 5.60007 224.4 5.60007 218.4C5.60007 212 12.0001 210.4 15.6001 212.8C18.8001 215.2 18.4001 219.6 16.4001 221.2C14.4001 222.4 12.4 222 12 220.8C11.2 220 13.2001 222 14.4001 219.6C15.6001 217.2 13.6001 215.2 13.6001 215.2L12 215.2Z" fill="#EADBD9"/>
<path d="M180.4 29.5997C180.4 26.3997 179.2 23.1997 176.8 20.3997C174 17.5997 170.4 15.9997 166.8 16.3997C162 16.7997 157.2 19.9997 154.8 23.9997C151.2 29.5997 149.2 35.9997 147.2 43.1997C145.2 49.1997 143.2 55.9997 140.4 61.5997C134.4 72.3997 124.8 79.5997 113.6 81.9997C103.2 83.9997 92.4 81.5997 83.6 74.7997C71.6 65.5997 70.4001 49.9997 74.0001 41.9997C75.6001 39.1997 78.4 36.3997 82.8 37.5997C84.4 37.8664 85.3334 38.6664 85.6 39.9997C86 41.9997 85.2001 43.9997 84.0001 44.7997C83.6001 45.5997 83.2 45.1997 82.8 45.1997C81.6 44.7997 80 45.1997 79.6 46.3997C79.2 47.5997 79.6 48.7997 80.8 49.1997C82.8 50.3997 85.2 49.9997 87.2 48.3997C89.6 46.3997 91.2 42.3997 90.4 39.1997C89.6 35.9997 87.2001 33.9997 84.0001 33.1997C78.4001 31.5997 72.8001 33.9997 70.0001 39.9997C64.8001 50.3997 67.2 67.9997 80.8 78.3997C90.8 85.9997 102.8 88.7997 114.8 86.3997C127.2 83.9997 138 75.5997 144.4 63.5997C147.6 57.5997 150 50.7997 152 44.3997C154 37.5997 155.6 31.1997 158.8 26.3997C160.4 23.5997 164 21.1997 167.2 21.1997C169.6 20.933 171.6 21.733 173.2 23.5997C176.4 27.1997 176.4 32.7997 173.2 35.9997C170.8 38.3997 168 38.3997 166.8 37.1997C165.2 35.9997 165.2 33.5997 166.8 31.1997C167.6 30.3997 167.2 28.7997 166.4 27.9997C165.2 27.1997 163.6 27.5997 162.8 28.7997C159.2 33.5997 160.8 38.3997 163.6 40.7997C166.8 43.1997 172.4 43.5997 176.4 39.1997C179.2 36.7997 180.4 33.1997 180.4 29.5997Z" fill="#EADBD9"/>
<path d="M124.8 22.8C124.8 20 124 16.8 122 13.6C117.2 6.39997 105.6 -0.40003 90.8 1.99997C74 4.79997 64.8001 18 62.0001 28.4C59.2001 38.4 61.6 48 68.4 52.8C69.2 53.6 70.8001 53.6 71.6001 52.8C72.4001 51.6 72.4001 50 71.2001 49.2C66.4001 45.6 64.4 38 66.8 29.6C69.2 20.4 77.2001 8.79997 91.6001 6.39997C104 4.39997 114 9.99997 118.4 16.4C121.2 20.4 120.8 25.6 118.8 28C116.8 31.2 112.8 32 110 31.2C108.8 30.8 106 29.2 106 25.6C106 22.8 107.2 21.2 109.2 20.8C110.4 20.8 111.6 21.6 112 22.8C112 24.4 113.2 25.2 114.8 24.8C116 24.8 116.8 23.6 116.8 22.4C116 18.8 112.8 16 108.8 16.4C105.2 16.4 101.2 19.6 101.2 25.6C101.2 30.4 104 34 108.4 35.6C114 37.2 119.6 35.2 122.8 30.8C124 28.8 124.8 26 124.8 22.8Z" fill="#EADBD9"/>
<path d="M129.6 37.1997C129.6 31.1997 127.6 25.5997 123.6 23.5997C122.4 23.1997 120.8 23.5997 120.4 24.7997C119.6 25.5997 120 27.1997 121.2 27.5997C125.6 29.9997 126.4 39.9997 122.8 47.9997C119.6 54.7997 112.4 58.3997 106.4 58.7997C100.8 59.1997 96.4 57.1997 94 53.1997C90.8 48.7997 92.3999 44.7997 94.3999 42.3997C96.7999 39.5997 100.8 39.1997 104 40.7997C106 41.5997 106.4 43.9997 106 45.9997C105.467 47.5997 104.267 48.3997 102.4 48.3997C100.8 48.3997 100 49.1997 99.6 50.3997C99.6 51.9997 100.8 52.7997 102 53.1997C106 53.1997 109.6 51.1997 110.4 47.1997C111.6 43.1997 110 38.3997 106 36.7997C100.8 33.9997 94.8 35.1997 90.8 39.1997C86.8 43.5997 86.4 49.9997 90 55.5997C93.2 61.1997 99.6 63.9997 106.8 63.5997C115.6 62.7997 123.6 57.5997 127.2 49.5997C128.8 45.9997 129.6 41.1997 129.6 37.1997Z" fill="#EADBD9"/>
<path d="M151.2 10.7999C151.2 9.46656 150.8 7.99989 150 6.3999C148.4 2.7999 144 0.799898 139.6 1.5999C134.4 2.3999 132.8 5.5999 132.4 8.3999C132.4 11.9999 134.8 14.7999 138 15.1999C139.6 15.5999 140.8 14.7999 140.8 13.5999C141.2 11.9999 140 10.7999 138.8 10.7999C138 10.7999 137.2 9.59989 137.2 8.79989C137.2 7.19989 138.4 6.3999 140.4 5.9999C142.8 5.59989 144.8 6.79989 146 8.79989C147.2 10.7999 146.4 12.7999 144.8 14.7999C142.8 17.1999 139.6 17.9999 137.6 17.9999C131.6 18.3999 125.2 15.9999 120.8 11.9999C119.6 10.7999 118.4 11.1999 117.2 11.9999C116.4 12.7999 116.4 14.3999 117.6 15.1999C122.8 19.9999 130.8 22.7999 137.6 22.3999C142 22.3999 145.6 20.7999 148.4 17.9999C150.4 15.9999 151.2 13.1999 151.2 10.7999Z" fill="#EADBD9"/>
<path d="M208.8 13.5997C208.8 10.3997 207.2 7.19967 204.4 5.19967C197.6 0.399672 184.8 3.19967 173.6 12.3997C170 15.1997 165.6 16.3997 161.6 15.5997C156.4 14.7997 152.4 11.5997 150.8 8.79968C150.4 7.59968 148.8 7.19968 147.6 7.59968C146.4 8.39968 146 9.59968 146.8 10.7997C148.8 14.7997 154 19.1997 160.8 20.3997C164.8 21.1997 170.4 20.7997 176.4 15.9997C186.8 7.59967 197.2 5.99967 201.6 9.19967C204 10.7997 204 13.1997 203.6 15.1997C203.2 17.1997 201.6 19.1997 198.8 19.5997C196.4 19.9997 195.2 18.7997 194.8 17.5997C194.8 17.5997 194.4 16.7997 195.2 16.3997C196.4 15.5997 196.8 14.3997 196.4 13.1997C196 11.9997 194.4 11.5997 193.2 11.9997C190.8 13.5997 189.6 16.3997 190.4 19.1997C191.2 21.9997 194.4 24.7997 199.6 23.9997C203.6 23.5997 207.2 20.7997 208.4 16.3997C208.667 15.333 208.8 14.3997 208.8 13.5997Z" fill="#EADBD9"/>
<path d="M71.6001 14.8001C71.6001 10.4001 69.2 7.20008 66.4 5.20008C62 2.80008 56.8001 3.20008 53.6001 6.40008C49.6001 10.4001 50.0001 14.8001 51.6001 18.0001C53.6001 21.6001 58 22.4001 60.8 21.2001C64 20.0001 65.2001 16.8001 64.0001 13.6001C63.6001 12.4001 62.4001 11.6001 61.2001 12.0001C60.0001 12.4001 59.2001 14.0001 59.6001 15.2001C60.0001 15.2001 60.4 16.4001 58.8 16.8001C58 17.2001 56.8001 17.2001 55.6001 15.6001C55.2001 14.8001 54 12.4001 56.8 9.60008C58.4 8.00008 61.6001 7.60008 64.0001 9.20008C66.8001 11.2001 68.0001 14.8001 66.0001 18.8001C65.6001 20.0001 66.4001 21.6001 67.6001 22.0001C68.8001 22.4001 70 21.6001 70.8 20.4001C71.3334 18.5334 71.6001 16.6667 71.6001 14.8001Z" fill="#EADBD9"/>
<path d="M69.6001 48.7998C69.6001 48.7998 69.6001 48.6664 69.6001 48.3998C69.6001 47.1998 68.4 46.3998 66.8 46.7998C63.0667 47.3331 60.1334 46.5331 58.0001 44.3998C54.8001 41.5998 53.2 35.5998 54.4 29.5998C56 18.7998 50.4 5.5998 38.8 3.1998C33.2 1.9998 27.6 3.5998 24.4 7.5998C21.6 11.1998 20.8 15.5998 22.8 19.5998C24.8 24.7998 30.4 25.9998 34.8 24.7998C38.8 23.5998 41.2 20.3998 40.4 16.7998C40 15.5998 38.8 14.7998 37.6 15.1998C36.4 15.5998 35.2 16.7998 35.6 17.9998C36 19.1998 34.4 19.9998 33.2 20.3998C31.6 20.7998 28.4 20.7998 27.2 17.9998C26 15.1998 26.4 12.7998 28 10.3998C30 7.9998 34 7.1998 38 7.9998C46.8 9.5998 50.8 20.3998 49.6001 29.1998C48.8001 34.7998 49.6 42.7998 54.8 47.5998C56.8 49.9998 61.2001 52.3998 68.0001 51.1998C68.8001 50.7998 69.6001 49.9998 69.6001 48.7998Z" fill="#EADBD9"/>
<path d="M46 43.9997C46 42.6664 46.1333 41.333 46.4 39.9997C46.4 38.6664 46.4 37.1997 46.4 35.5997L46.4 33.5997C46.4 32.7997 46.2666 32.133 46 31.5997C46 30.7997 45.8667 29.9997 45.6 29.1997C45.6 28.933 45.4667 28.533 45.2 27.9997C45.2 27.733 45.0666 27.4664 44.8 27.1997C44.2666 25.5997 43.3333 24.133 42 22.7997C40.4 21.5997 38.8 20.7997 36.8 20.3997C35.2 19.9997 33.6 19.9997 32.4 19.9997C30.8 19.9997 29.2 19.9997 28 19.9997C26.6666 19.9997 25.3333 19.9997 24 19.9997C22.6666 20.2664 21.3333 20.2664 20 19.9997C17.6 19.733 15.4667 19.0664 13.6 17.9997C12.5333 17.4664 11.6 16.7997 10.8 15.9997C10.2666 14.933 9.59996 13.8664 8.79996 12.7997C7.59996 10.3997 6.79998 7.99971 5.99998 5.19971C5.46664 8.13304 5.46664 10.933 5.99998 13.5997C6.26664 15.1997 6.80001 16.6664 7.60001 17.9997C8.40001 19.5997 9.33334 20.933 10.4 21.9997C12.8 23.9997 16.4 25.1997 19.2 25.9997C20.8 25.9997 22.4 26.133 24 26.3997C25.3333 26.3997 26.8 26.2664 28.4 25.9997C29.6 25.9997 30.8 25.9997 32.4 25.9997C33.7333 25.9997 34.8 25.9997 35.6 25.9997C36.6667 26.2664 37.6 26.533 38.4 26.7997C39.2 27.333 39.8667 28.133 40.4 29.1997C40.6667 29.4664 40.8 29.733 40.8 29.9997C41.0666 30.2664 41.2 30.533 41.2 30.7997C41.4667 31.333 41.7333 31.8664 42 32.3997C42.2666 33.1997 42.5333 33.8664 42.8 34.3997L43.6 36.3997C43.6 36.933 43.7333 37.4664 44 37.9997L44.8 39.9997C45.0666 41.333 45.4666 42.6664 46 43.9997Z" fill="#EADBD9"/>
<path d="M122.8 21.1997C129.2 31.9997 140.8 33.1997 140.8 33.1997C140.8 33.1997 133.6 37.1997 129.2 35.5997L127.2 35.5997C127.2 35.5997 125.6 40.7997 121.6 43.1997C117.6 45.5997 116.4 45.5997 116.4 45.5997C116.4 45.5997 121.6 40.3997 122.4 34.7997C123.6 28.7997 122.8 21.1997 122.8 21.1997Z" fill="#EADBD9"/>
<path d="M68.4 46.4001C66 39.2001 68.4 34.0001 70.8 31.6001C70.8 31.6001 65.6 31.6001 62.8 38.0001C62.8 38.0001 59.6 33.2001 57.2 31.6001C57.2 31.6001 59.6 35.6001 60.4 40.4001C61.6 45.2001 64.8 49.6001 66.4 50.8001C68 51.6001 70 53.6001 68.4 46.4001Z" fill="#EADBD9"/>
<path d="M116.4 8.7998C124 15.1998 132 10.7998 132 10.7998C132 10.7998 131.2 14.7998 125.6 16.3998L121.6 14.7998L116.4 8.7998Z" fill="#EADBD9"/>
<path d="M140.8 66.3999C125.2 77.5999 113.6 69.9999 113.6 69.9999C113.6 69.9999 124 87.9999 140.8 66.3999Z" fill="#EADBD9"/>
<path d="M149.2 8.7998C155.6 14.7998 164 11.5998 164 11.5998C164 11.5998 162 16.3998 157.2 15.9998C152.4 15.5998 149.6 11.1998 149.2 8.7998Z" fill="#EADBD9"/>
<path d="M67.6 9.6C66.8 4 70.7999 2 70.7999 2C70.7999 2 70 9.2 71.6 12.8C72.8 16.8 68.8 15.6 67.6 9.6Z" fill="#EADBD9"/>
<path d="M68.4 52.8C61.6 51.6 53.6001 51.6 53.6001 51.6C53.6001 51.6 54.8 48.8 59.2 48C64 47.6 68.4 52.8 68.4 52.8Z" fill="#EADBD9"/>
<path d="M90 103.2C90 94.3997 87.2 85.5997 81.2 78.3997C70.4 65.1997 52.4 62.3997 41.6 67.5997C35.6 70.3997 32.8 75.5997 34.4 81.5997C35.2 84.7997 37.6 86.7997 40.8 87.5997C44 88.3997 48.3999 87.1997 50.3999 84.3997C51.9999 82.7997 52 80.3997 51.2 78.3997C50.8 77.1997 49.2 76.3997 48 77.1997C46.8 77.5997 46.4 78.7997 46.8 79.9997C47.2 80.3997 47.2 80.7997 46.8 81.5997C46 82.7997 43.6 83.5997 41.6 83.1997C40.2667 82.6664 39.4667 81.733 39.2 80.3997C38 75.5997 41.2 73.1997 44 71.5997C51.6 67.9997 67.6 69.1997 77.2 81.1997C84.4 89.5997 86.8 99.9997 84.8 110.4C82.4 121.2 74.8 130.8 63.6 136.4C58 139.6 51.2 141.2 44.8 143.2C37.6 145.2 30.8 147.2 25.2 150.4C21.2 153.2 18 157.6 17.6 162C17.2 166 18.8 169.6 21.6 172C27.2 176.8 35.6 176.8 40.8 172C45.2 167.6 44.8 162.4 42.4 159.2C40 156.4 35.2 155.2 30 158.4C28.8 159.2 28.8 160.8 29.6 162C30 162.8 31.6 163.2 32.8 162.4C35.2 160.8 37.2 160.8 38.8 162.4C40 163.6 40 166.4 37.6 168.4C34 171.6 28.4 172 24.8 168.8C22.9333 166.933 22.1333 164.933 22.4 162.8C22.4 159.6 24.8 156.4 27.6 154.4C32.8 151.6 39.2 149.6 46 147.6C52.8 145.6 59.6 143.6 66 140.4C78 134 86.8 123.6 89.2 111.2C89.7333 108.533 90 105.866 90 103.2Z" fill="#EADBD9"/>
<path d="M55.6 67.6001C55.6 67.0667 55.3333 66.5334 54.8 66.0001C49.6 59.6001 40 57.2001 29.6 60.0001C19.2 62.8001 5.59998 71.6001 2.79998 88.0001C0.399985 102.4 7.19999 113.6 14.8 118.8C20.8 122.8 28 122 32 119.2C36.8 116.4 38.8 110.4 36.8 105.2C35.6 100.8 31.6 98.0001 26.8 98.4001C20.8 98.4001 17.6 102 17.6 105.6C17.2 109.6 20 112.8 23.6 113.2C24.8 113.6 26 112.4 26.4 111.2C26.4 110 25.6 108.8 24 108.8C22.8 108.4 22 107.2 22 106C22.4 104 24 102.8 26.8 102.8C30.8 102.8 32 105.6 32.4 106.8C33.2 109.6 32.8 113.6 29.6 115.6C26.8 117.2 21.6 117.6 17.2 114.8C10.8 110.8 5.20003 101.2 7.60003 88.8001C10 74.8001 21.6 66.8001 30.8 64.4001C39.6 62.4001 47.2 64.0001 51.2 68.8001C52 70.0001 53.5999 70.0001 54.3999 69.2001C55.1999 68.6667 55.6 68.1334 55.6 67.6001Z" fill="#EADBD9"/>
<path d="M66 102C66 95.5997 62.8 89.9997 57.6 87.1997C52 83.5997 45.2 83.9997 40.8 87.9997C36.4 91.9997 35.6 97.9997 38.4 103.2C40 106.8 44.8 108.4 49.2 107.2C52.8 106.4 55.2 103.2 54.8 98.7997C54.8 97.5997 53.6 96.7997 52.4 96.7997C51.2 96.7997 50 97.9997 50.4 99.1997C50.4 101.066 49.4667 102.266 47.6 102.8C46 103.2 43.2 102.8 42.4 101.2C40.8 97.5997 41.2 93.9997 44 91.5997C46.4 89.5997 50.4 88.3997 55.2 91.1997C59.2 93.5997 61.6 97.9997 61.2 103.2C60.8 108.8 56.8 116 49.6 119.2C41.6 122.8 31.2 122 29.2 118C28.4 116.8 27.2 116.4 26 116.8C24.8 117.6 24.4 118.8 24.8 120C28.4 127.2 42 127.6 51.6 123.6C59.6 120 65.2 112.4 65.6 103.6C65.8667 103.066 66 102.533 66 102Z" fill="#EADBD9"/>
<path d="M24 132.8C24 126.4 20.8001 119.2 16.4001 114C15.6001 113.2 14 113.2 12.8 114C12 114.8 12 116.4 12.8 117.2C16.8 121.6 19.2 128 19.2001 133.6C18.8001 135.6 18.4 138.8 16 140.8C14 142.4 11.6001 143.2 9.60008 142C7.60008 141.2 6.80003 138.8 6.80003 136.4C7.20003 134.4 8.00008 133.6 9.60008 133.6C10.4001 133.6 11.6001 134 11.6001 135.2C12.0001 136.4 13.2001 137.2 14.4001 136.8C15.6001 136.8 16.8001 135.6 16.4001 134.4C16.0001 131.2 12.8001 128.8 9.60008 128.8C6.80008 128.8 2.80006 130.8 2.40007 135.6C1.60007 140 3.60008 144.4 7.60008 146C11.2001 148 15.6001 147.2 19.2001 144C22.0001 141.6 23.6001 138.4 23.6001 134C23.8667 133.467 24 133.067 24 132.8Z" fill="#EADBD9"/>
<path d="M25.6001 193.2C25.6001 188.8 23.2001 186.4 20.4001 185.6C17.2001 184.4 14.4001 185.6 13.2001 188C12.4001 189.2 12.8001 190.8 14.0001 191.2C15.2001 192 16.8001 191.6 17.2001 190.4C17.6001 189.6 18.8 189.6 18.8 190C20 190 21.2 191.2 20.8 194C20.4 196.4 18.0001 198 16.4001 198.4C14.4001 198.8 11.6001 198.8 10.0001 196.4C6.80005 192.4 8.40007 182 17.2001 172C22.0001 166 22.4001 160.4 21.6001 156.4C20.4001 150 15.6 144.8 12 142.8C10.8 142 9.20003 142.4 8.80003 143.6C8.00003 144.8 8.40008 146 9.60008 146.8C12.4001 148.4 16 152.4 16.8 157.2C17.6 161.2 16.4001 165.2 13.6001 168.8C4.00009 179.6 1.20008 192.4 6.40008 199.2C8.80008 202.8 13.2001 204 17.6001 202.8C22.0001 201.6 24.8001 198.4 25.6001 194.4C25.6001 193.867 25.6001 193.467 25.6001 193.2Z" fill="#EADBD9"/>
<path d="M23.2 65.9997C23.2 65.733 23.2 65.4663 23.2 65.1997C22.8 63.9997 21.2 63.5997 20 63.9997C15.6 65.5997 12 64.7997 10 61.5997C8.80001 59.1997 8.80003 56.3997 10.4 54.7997C13.2 52.3997 16 53.1997 16.8 53.5997C18.4 54.7997 18.4 55.9997 18 56.7997C17.6 57.9997 16.4 57.5997 16 57.5997C14.8 57.1997 13.6 57.9997 13.2 59.1997C12.8 60.3997 13.2 61.5997 14.4 61.9997C17.6 63.1997 20.8 61.9997 22.4 58.7997C23.6 55.9997 22.8 51.9997 19.2 49.5997C16 47.9997 11.2 47.5997 7.20002 51.5997C4.00002 54.7997 3.60001 59.9997 6.00001 63.9997C8.80001 67.9997 14 71.1997 21.6 68.3997C22.8 67.9997 23.2 67.1997 23.2 65.9997Z" fill="#EADBD9"/>
<path d="M53.2 62.3997C53.2 57.5997 51.6 54.3997 49.6 52.7997C44.8 47.5997 36.4 46.7997 30.4 47.5997C21.6 49.1997 10.8 45.1997 8.79996 36.3997C7.99996 32.3997 8.80001 28.7997 11.6 26.7997C13.6 24.7997 16.4 24.7998 18.8 25.5998C22 27.1997 22 30.3998 21.6 31.9997C21.2 32.7997 20.4 34.3997 19.2 33.9997C17.6 33.9998 16.4 34.7998 16.4 35.9997C16 37.1997 16.8 38.3997 18 38.7997C21.6 39.1997 24.8 37.1997 26 33.1997C27.6 29.1997 26 23.5997 20.8 21.5998C16.8 19.5998 12 20.3998 8.39999 23.1998C4.4 26.3998 2.79997 31.5998 3.99997 37.1997C6.79997 48.7997 20 53.9997 31.2 52.3997C37.2 51.5997 43.2 52.7997 46.4 55.9997C48.5333 58.1331 49.1999 61.0664 48.3999 64.7997C47.9999 65.9997 49.1999 67.1997 50.3999 67.5997C51.5999 67.5997 52.8 66.7997 53.2 65.5997C53.2 64.2664 53.2 63.1997 53.2 62.3997Z" fill="#EADBD9"/>
<path d="M46 43.9998C44.4 43.7331 42.9334 43.3331 41.6 42.7998L39.6 42.3998C39.0667 42.1331 38.4 41.8665 37.6 41.5998L36 41.1998C35.2 40.9331 34.5333 40.6665 34 40.3998C33.4667 40.1331 32.9334 39.8665 32.4 39.5998C32.1334 39.5998 31.8667 39.4665 31.6 39.1998C31.3334 39.1998 31.0667 39.0665 30.8 38.7998C29.7333 38.2665 28.9334 37.5998 28.4 36.7998C27.8667 35.9998 27.4667 35.1998 27.2 34.3998C27.2 33.3331 27.2 32.1331 27.2 30.7998C27.2 29.1998 27.2 28.3998 27.6 26.7998C27.6 25.4665 27.6 24.1331 27.6 22.7998C27.6 21.1998 27.4667 19.5998 27.2 17.9998C26.8 15.1998 25.6 11.9998 23.2 9.5998C22.1333 8.26647 20.8 7.33313 19.2 6.7998C17.8667 5.9998 16.4 5.46647 14.8 5.1998C11.8667 4.66647 8.93333 4.66647 6 5.1998C8.8 5.9998 11.6 6.7998 14 7.9998C15.0667 8.53313 16 9.1998 16.8 9.9998C17.8667 10.7998 18.6667 11.5998 19.2 12.3998C20.4 14.3998 21.2 16.3998 21.2 18.7998C21.2 20.1331 21.2 21.4665 21.2 22.7998C21.2 23.8665 21.2 25.0665 21.2 26.3998C21.2 27.9998 21.2 29.5998 21.2 30.7998C21.2 31.9998 21.2 33.5998 21.6 35.5998C22 37.1998 22.8 38.7998 24 40.3998C25.6 41.5998 26.8 42.3998 28.4 43.1998C28.6667 43.1998 29.0667 43.3331 29.6 43.5998C29.8667 43.5998 30.2667 43.7331 30.8 43.9998C31.3333 43.9998 32 44.1331 32.8 44.3998C33.6 44.3998 34.4 44.5331 35.2 44.7998L37.2 44.7998C38.8 44.7998 40.2667 44.7998 41.6 44.7998C42.9334 44.5331 44.4 44.2665 46 43.9998Z" fill="#EADBD9"/>
<path d="M22.4001 119.2C33.6001 125.6 34.4001 137.2 34.4001 137.2C34.4001 137.2 38.8 130 37.2 125.6L37.2 123.6C37.2 123.6 42.4 122 44.8 118C47.2 114.4 47.2 113.2 47.2 113.2C47.2 113.2 42.4001 118 36.4001 119.2C30.4001 120 22.4001 119.2 22.4001 119.2Z" fill="#EADBD9"/>
<path d="M48.0001 65.9997C40.8001 63.9997 35.2 65.9997 32.8 68.3997C32.8 68.3997 32.8001 63.5997 39.6001 60.7997C39.6001 60.7997 34.4 57.5997 33.2 55.1997C33.2 55.1997 37.2 57.5997 42 58.3997C46.8 59.5997 51.6 62.3997 52.4 63.9997C53.6 65.5997 55.6001 67.5997 48.0001 65.9997Z" fill="#EADBD9"/>
<path d="M66.4 136.8C79.6 123.2 74.0001 110.8 74.0001 110.8C74.0001 110.8 90.4 123.6 66.4 136.8Z" fill="#EADBD9"/>
<path d="M9.60007 145.2C16.0001 151.2 12.8 159.6 12.8 159.6C12.8 159.6 17.2 158 17.2 153.2C16.8 148.4 12.0001 145.6 9.60007 145.2Z" fill="#EADBD9"/>
<path d="M10.4 65.2C4.80002 64.8 2.79999 68.8 2.79999 68.8C2.79999 68.8 10 68 14 69.2C17.6 70.4 16.8 66.4 10.4 65.2Z" fill="#EADBD9"/>
<path d="M54.8 66.0001C53.6 59.6001 53.6 51.6001 53.6 51.6001C53.6 51.6001 50.8001 52.8001 50.0001 57.2001C49.2001 61.6001 54.8 66.0001 54.8 66.0001Z" fill="#EADBD9"/>
<path d="M114 92.8C113.2 91.7333 112.267 91.0666 111.2 90.8C109.867 90.5333 108.667 90.5333 107.6 90.8C105.2 91.6 103.2 93.6 102.4 96C102 97.2 102 98.8 102.4 100C102.667 101.333 103.2 102.533 104 103.6C105.6 105.6 108 107.2 110.4 108C113.2 108.4 116 108 118.8 106.8C121.2 105.6 123.2 103.6 124.4 101.2C125.6 98.8 126 96.4 126 93.6C126 91.2 125.467 88.8 124.4 86.4C123.6 84.2666 122.4 82.1333 120.8 80C119.2 78.1333 117.467 76.5333 115.6 75.2C111.6 72.8 107.2 70.8 102.4 69.6C98 68.8 93.2 68.4 88.8 68.8C86.4 69.0667 84.1334 69.6 82.0001 70.4C80.9334 70.6667 79.8667 71.0667 78.8 71.6C78 72.4 77.2 73.2 76.4 74C78.2666 72.9333 80.2666 72.1333 82.4 71.6C84.5333 71.3333 86.6667 71.3333 88.8 71.6C93.2 71.6 97.2 72.4 101.2 74C105.2 75.2 109.2 77.2 112.4 79.6C114 80.8 115.6 82 116.8 83.6C117.867 84.9333 118.8 86.5333 119.6 88.4C120.8 92 121.2 96 119.6 99.2C119.333 99.4666 119.067 99.7333 118.8 100C118.8 100.533 118.667 100.933 118.4 101.2C117.867 101.467 117.467 101.733 117.2 102C117.2 102.267 117.067 102.4 116.8 102.4L116.4 102.8C114.8 103.6 113.2 104 111.6 103.6C109.6 103.6 108 102.8 106.8 101.2C105.6 100 104.8 98.4 105.2 96.4C105.2 94.8 106.4 93.2 108 92.4C110 91.2 112 91.2 114 92.8Z" fill="#EADBD9"/>
<path d="M220 12C220.4 7.2 228.4 5.2 230.8 12.4C232.8 19.2 226.4 22.8 221.6 22.4C216.8 22 211.2 18 212 9.2C213.2 7.30421e-07 218.8 -1.20239e-06 230 -3.16066e-06C241.2 -5.11893e-06 360 -2.58906e-05 360 -2.58906e-05L360 5.59998C360 5.59998 229.2 5.6 222.8 5.6C216.8 5.6 214.8 12 217.2 15.6C219.6 18.8 224 18.4 225.6 16.4C227.2 14.8 226.4 12.8 225.6 12C224.4 11.2 226.4 13.2 224 14.4C222 15.6 220 13.6 220 13.6L220 12Z" fill="#EADBD9"/>
</g>
<defs>
<clipPath id="clip0_3_3844">
<rect width="280" height="280" fill="white"/>
</clipPath>
</defs>
</svg>
